<?xml version="1.0" encoding="UTF-8"?>
<svg id="uuid-54861ad2-5400-4cd0-9e64-0bcc7fa5b577" data-name="图层 2" xmlns="http://www.w3.org/2000/svg" xmlns:xlink="http://www.w3.org/1999/xlink" viewBox="0 0 1190.55 504.89">
  <defs>
    <style>
      .uuid-b2119ca7-2074-4796-b789-d3ddee80ad42 {
        fill: url(#uuid-2bd7e9a4-2226-48ac-b074-e40ecfe4a91b);
        opacity: .86;
      }

      .uuid-4b2cfc97-0aa8-470f-bd61-3353ecc0371a {
        fill: #fff;
      }

      .uuid-a6e9c328-5e42-486c-9c48-bf90e627e016 {
        fill: url(#uuid-30f7f3d4-9ccc-448e-b353-da458105a753);
        opacity: .75;
      }

      .uuid-0aaae2a2-40ed-46e3-897b-0ce6184418e1 {
        fill: url(#uuid-4351e7fc-83e5-4b69-ba60-2b9aa71b08ef);
        opacity: .43;
      }
    </style>
    <linearGradient id="uuid-30f7f3d4-9ccc-448e-b353-da458105a753" data-name="未命名的渐变 73" x1="595.28" y1="504.89" x2="595.28" y2="0" gradientUnits="userSpaceOnUse">
      <stop offset="0" stop-color="#000"/>
      <stop offset=".26" stop-color="#00244e"/>
      <stop offset="1" stop-color="#00312c"/>
    </linearGradient>
    <linearGradient id="uuid-2bd7e9a4-2226-48ac-b074-e40ecfe4a91b" data-name="未命名的渐变 20" x1="595.28" y1="378.06" x2="595.28" y2="0" gradientUnits="userSpaceOnUse">
      <stop offset="0" stop-color="#000" stop-opacity=".4"/>
      <stop offset=".22" stop-color="#00244e" stop-opacity=".5"/>
      <stop offset="1" stop-color="#00312c"/>
    </linearGradient>
    <linearGradient id="uuid-4351e7fc-83e5-4b69-ba60-2b9aa71b08ef" data-name="未命名的渐变 97" x1="595.28" y1="504.89" x2="595.28" y2="378.06" gradientUnits="userSpaceOnUse">
      <stop offset="0" stop-color="#0a3a35" stop-opacity=".86"/>
      <stop offset="1" stop-color="#000"/>
    </linearGradient>
  </defs>
  <g id="uuid-ffd904a2-7ed9-45fa-83aa-c9d5857db13e" data-name="图层 1">
    <g>
      <rect class="uuid-a6e9c328-5e42-486c-9c48-bf90e627e016" width="1190.55" height="504.89"/>
      <g>
        <path class="uuid-4b2cfc97-0aa8-470f-bd61-3353ecc0371a" d="M1018.47,161.96c.32.45-.19,1.51-.67,2.41-.39.87-1.03,1.37-1.52,2.13-.24.7.94.5,1.39.45,1-.35,2.02-.06,3.02.09,2.8-.1,5.5.19,8.21.74.61.03,1.22.35,1.74.58.21.09.36.16.36.27-.13.44-.71.65-1.23.56-.49-.09-1.05-.18-1,.02.23.59-.33,1.97.37,2.45.44.31,1.01.54,1.3.1.43-.81,1.18-1.43,1.9-1.94,1.05-.74,2.49.27,1.77,1.53-.16.43-.17.6.22.55,1.27-.3,4.09.25,3.31,2.07-.31.6-1.23.92-1.86.58-.43-.22-.8-.59-1.28-.64-.71-.06-1.54,0-2.2-.32-1.26-.4-2.93.35-4.19-.3-.57-.35-1.6-.8-2.14-1.29-.76-1.14.71-2.12,1.51-2.86.07-.09.08-.16.04-.21-.24-.2-1.3-.11-1.76-.3-1.54-.47-3.62.04-5.31-.13-.43-.05-.84-.24-1.27-.23-.76.07-1.61.25-1.26,1.21.11.52.26.9.68.85,1.1-.04,2.07-1.04,2.77.28.21.33.58.83.77.2.79-2.19,2.73-.5,2.07,1.13-.3.75-1.06,1.1-1.71,1.54-.9.62-1.92-.37-2.65-.81-1.18-.53-2.35.51-3.33-.5-.17-.17-.35-.38-.52-.55-.61-.65-1.37-.03-2.18-.23-.28-.08-.55-.25-.73-.48-.65-1.31-1.51-.19-2.33.24-.54.32-1.06.37-1.59.61-.53.26-1.02.46-1.65.27-.83-.16-1.58-.58-2.34-.82-.44-.05-.85.2-1.28.2-.41,0-.81.04-1.29.11-.74-.06-1.74.2-2.42-.01-.37-.13-.47.14-.71.47-.14.17-.34.3-.57.4-.83.4-1.57-.14-1.58-1-.11-2.17,1.53-4.03,1.93-6.11.04-1.25,1.08-2.53,2.31-2.69.83.1.3,1.28-.05,1.72-.77,1.08-.99,2.37-1.63,3.53-.26.59.21.2.62.51.39.51.62,1.24,1.32,1.46.66.17,1.21.26,1.84.28.62-.1,1.42-.5,1.77-.97.37-.5.78-1.21,1.45-1.26.55-.06.91.76.75,1.33-.55,1.35.79,1.38,1.71,1.07,1.08-.07,1.92-.94,2.67-1.57.34-.26.64-.45.88-.84.4-.67.66-1.7.97-2.25,1-1.53,1.84-2.78,3.54-3.57.3-.13.75-.31.99-.12l.06.07Z"/>
        <path class="uuid-4b2cfc97-0aa8-470f-bd61-3353ecc0371a" d="M1106.56,172.21c.13.28,0,.8.1,1.07.17.51,1,.13,1.31.69.27.3,0,.8.14,1,.26.22.59.31.87.52.69.73,1.6.62,2.38.1.52-.45,1.06-.9,1.77-.74.43.1.75.53,1.23.31,1.22-.37,4.47-1.78,3.15.85-.12.45.37.24.72.14,2.57-1.02.19,1.62,2.31,1.5.78-.06,1.37-.22,2.11-.41.73-.12,1.69-.58,2.16.28.5.72-.13,1.2-.6,1.72-.75,1.49-1.47,1.75-3.09,1.47-.5-.02-1.13-.04-1.54-.35-.43-.3-.41-.78.03-.96.5-.24,1.3.25,1.87.17.55-.02,1.02-.54,1.02-1.02-.02-.06-.09-.09-.2-.1-.76,0-1.63.26-2.46.21-.75,0-1.58-.03-1.99-.37-.18-.12-.39-.25-.6-.23-.72.21-2.15,1.11-2.52-.03-.14-.56.78-1.81-.43-1.45-2.12.7-4.31,1.5-6.61,1.33-1.06-.03-1.69.13-2.34-.64-.17-.18-.29-.59-.59-.52-.83.22-1.52,2.1-2.58,1.25-1.01-1.2,1.3-2.43,1.43-3.55-.35-1.07-2.83.96-3.37,1.23-.83.54-1.58,1.38-2.5,1.56-.71.28-1.29.17-1.92-.26-.55-.26-1.27-.47-1.85-.49-.64-.05-1.12.6-1.74.58-1.71-.46-.27-2.66.39-3.49.79-1.51-1.47.74-1.85.85-.84.5-1.68,1.07-2.44,1.54-.84.62-2.57.48-2.58-.81.04-1.82,1.65-3.15,3.01-4.17.43-.22,1,0,.79.62-.2.85-1.34,1.53-1.49,2.32.09.85.86-.05,1.21-.3,1.24-.42,2.24-1.65,3.36-2.3.34-.19.64-.24,1.01-.4.52-.22.97-.6,1.45-.4.57.23.83.9.54,1.45-.22.54-1,1.11-.38,1.35.21.08.55.11.76.27.57.48.31,1.66,1.33,1.69.98.21,1.74-.69,2.58-1.05,1.33-.6,2.82-1.35,4.23-1.87.61-.33,1.87-.43,2.36-.21l.06.07Z"/>
        <path class="uuid-4b2cfc97-0aa8-470f-bd61-3353ecc0371a" d="M982.4,195.81c-.99-.41-2.75-.89-3.55.21-.53.41-.81,1.95-1.61,1.7-1.93-1.44,1.08-3.58,1.9-4.8.84-1.45,1.68-3.47-1-2.56-1.73.5-3.37,2.12-5.24,1.95-.61-.22-1.27-.68-1.99-.67-1.25.2-2.43.86-3.68,1.17-2.69.74-6.7,5.77-4.05-.71.81-1.94,1.27-5.12,3.73-5.4.69-.07,2.34.31,1.46,1.22-.3.32-.68.27-1.02.27-1.19,0-1.54,1.44-1.95,2.29-.16.47-.58,1.4.16,1.41,1.22-.3,2.58-1.06,3.85-1.14,1.27-.29,2.15-1.6,3.58-1.17.46.14.68.64,1.13.79,1.42.38,2.74-1,4.09-1.1.99-.24,1.92-1.13,2.96-.64,1.1.42.83,1.69.43,2.56-.18.67-1.11,1.49-.54,2.13,1.02.91,2.47,1.5,3.69,2.07.97.71-2,.58-2.25.48l-.12-.04Z"/>
        <path class="uuid-4b2cfc97-0aa8-470f-bd61-3353ecc0371a" d="M1124.18,194.2c-1.13-.38-2.41.23-3.61.19-.67.05-.71.62-1.06,1.17-.5,1.04-.88,1.32-1.69,2.11-.75.74-1.17,2.53.13,2.89,1.12.44,1.88-.38,2.89-.57.11,0,.32-.03.42-.03.45.02.6.47.92.71.38.3,1.08.31,1.61.2.78-.21,1.31.13.91.84-.39.81-1.39.73-2.1.9-.65.11-1.38-.04-2.03-.27-1-.9-2.21-.08-3.36-.27-.9-.15-1.96-.77-2.71-1.31-.8-1.05,2.01-3.29,2.47-4.38.25-.55,1.24-1.17.91-1.78-.42-.33-1.44-.15-1.87-.04-1.7.57-2.68,2.85-3.45,4.21-.33.73-.54,1.96-1.2,2.53-1.02.72-1.04-1.04-.66-1.62.6-.96.87-2.07,1.55-2.96.35-.45.66-.94.75-1.51.08-.4.17-.86.56-1.06.84-.4,1.91-.66,2.81-.92,1.23-.24,2.41-.08,3.65-.07,1.22-.06,2.28-.08,3.39.09,1.58.16,3.73-.48,5.16.01.41.63-1.09.87-1.54.8-.89-.09-1.82.38-2.72.19l-.13-.03Z"/>
        <path class="uuid-4b2cfc97-0aa8-470f-bd61-3353ecc0371a" d="M1115.95,262.28c.08.38-.24.99.21,1.23.98.48,1.87.63,3.06.67.83-.01,1.47.12,2.01-.34.41-.38,1.03-1.45,1.53-.58.83,2.73-3.52,2.22-5.1,2.29-1.79-.28-3.59-.45-5.35-.96-.69-.08-1.35.21-2.02,0-.81-.21-1.84-.03-2.71-.12-1.03-.2-2.23-.44-3.25-.47-.42.07-.8.45-1.3.57-.95.25-2.69.47-2.85-.84.45-2.68,1.9-5.47,3.34-7.9.68-.89.96-1.89,2.07-2.28,2.28-.63.51,1.52.03,2.37-.34.6-.86.97-1.21,1.53-.38.63-.19,1.4-.9,1.73-.54.4-.46,1.08-.83,1.76-.23.51-.43,1.01-.52,1.51-.2.95.93.86,1.36.19.86-1.25,1.78-1.03,2.86-.25.89.43,1.95.55,2.87.49.68.04,1.36.14,2.06-.06.66,0,1.41-.3,1.96-.59.65-.13,1.97-.16,2.63-.01l.05.05Z"/>
        <path class="uuid-4b2cfc97-0aa8-470f-bd61-3353ecc0371a" d="M1067.91,260.74c-.37-.09-1.95-.59-1.79-1.08.49-.16,1.18.29,1.7.34.64.09,1.27.12,1.88.22.35.02.68-.17,1.03-.22.34-.04.57.27,1.05.37.55.15,1.39-.06,1.81.38.29.31-.22.87-.14,1.37.11.61.9.63,1.33.37.21-.1.4-.15.61-.12.6.15,1.25.53,1.87.45.56-.03,1.23-.38,1.79-.71,1.04-.68,1.07-2.41,2.16-3.09.82-.46,3.13-2.93,3.58-1.16-.13.78-.92,1.08-1.44,1.73-.65.7-1.28,1.22-1.55,2.04-.41,2.22,2.92.55,3.9.31.67-.28,1.74-.89,2.03-.46.22.22.13.99.57.78,1.25-.79,1.53-3.12-.29-3.22-2.05.3-1.62-2.25.08-1.99.52.11.96.12,1.36.6.32.42.71.82,1.02,1.22.52.64.15,1.39,0,2.1-.26,1.82-2.91,3.74-4.6,2.77-.35-.25-.72-.6-1.12-.25-.46.45-1,.8-1.67.55-.71-.25-1.53-.03-2.27-.25-.8-.33-1.49-1-2.4-.44-.79.37-1.44,1.04-2.29,1.04-.41.01-.82-.17-1.44-.15-.75-.03-1.11.17-1.67.13-.96-.03-1.44-1-1.54-1.95-.04-.11-.1-.3-.26-.2-.72.81-1.54,2.04-2.52,2.65-.29.18-.62.09-.82-.2-.67-.83.25-2.24.75-2.93.76-.91.43-.97-.6-1.01l-.12-.02Z"/>
        <path class="uuid-4b2cfc97-0aa8-470f-bd61-3353ecc0371a" d="M1057.49,264.61c-.58-1.02-.4-1.95.11-3.17.49-1.23.9-2.21,1.08-3.33-.06-.22-.55.04-.88-.13-.21-.1-.33-.3-.25-.45.14-.26.73-.35,1.11-.52.72-.42,1.78-.88,2.38-.06.07.11.1.24.08.36-.48,1.41-1.59,2.75-2,4.23-.09.47-.43,1.52.34,1.52.69-.1,1.5-.89,2.22-.43.6.65,1.19.37,1.56-.29.22-.34.58-.54.84-.84.18-.22.32-.52.57-.71.35-.35,1.21-.21,1.05.38-.65,1.4-1.98,2.66-3.37,3.33-.26.13-.44.11-.71.06-.58-.14-1.25-.05-1.8.06-.67.12-1.53.26-2.25.06l-.08-.07Z"/>
        <path class="uuid-4b2cfc97-0aa8-470f-bd61-3353ecc0371a" d="M1100.68,195.01c-.32.34-1.03.77-.98,1.34.26,1.36,2.1,3.02.71,4.26-.55.88-1.33,2.48-2.64,1.91-.7-.38-2.01-1.98-.9-2.54.6-.36,1.5.4,1.77-.52.4-1.09-1.26-1.67-1.22-2.68.11-.82.69-1.73,1.09-2.44.22-.39,0-.87-.31-.97-.11-.03-.17.06-.2.25-.13,1.19-.98,2.46-1.34,3.57-.09,1.02-.9,1.7-1.2,2.69-.06.18-.16.39-.26.55-1.38,1.75-2.5-.23-1.07-1.51.4-.5.2-1.24.32-1.83.21-.89,1.14-1.88,1.5-2.71.12-.32.72-.7.78-.78-.2-.2-.92.07-1.3.21-.66.3-1.58.46-1.93,1.08-.07.15-.17.32-.25.46-.51.78-2.03.18-2.04-.67,0-.16.12-.06.3.06.12.06.25.16.37.04.27-.3.46-1.15.91-1.48.64-.6,1.63-.52,2.25-1.02.47-.34,1.06-.46,1.59-.61.92-.25,1.83-.51,2.74-.15.87.1,2.1-.14,2.49.97.17.74-.64,1.31-.87,1.98-.07.15-.16.32-.25.46l-.08.1Z"/>
        <path class="uuid-4b2cfc97-0aa8-470f-bd61-3353ecc0371a" d="M1072.52,192.34c-1.95-1.24-5.54,2.57-3.87,4.38.91,1.09,2.24,1.37,3.49,1.94.41.19.74.51.51.81-.27.33-.9.7-1.18.54-.8-.64-1.96-.41-2.93-.85-1.34-.47-2.57-1.14-3.09-2.43.02-1.23,1.23-2.44,1.64-3.65.26-.5.92-.49,1.38-.83,1.43-.93,3.21-2.37,5.1-2.23.38.15.78.66.81,1.02-.04.75-.96,1.57-1.76,1.34l-.1-.04Z"/>
        <path class="uuid-4b2cfc97-0aa8-470f-bd61-3353ecc0371a" d="M1078.79,198.34c-.37-.83.23-1.5,1.2-1.58.64-.08,1.33.07,1.69-.44.43-.54.54-1.37,1.16-1.74.49-.22,1.44-.22,1.29.57-.05.42-.29.81-.29,1.23-.04.53.28.58.63.76.8.39,2.24,1.12,2.57,1.27.13,0,.28-.04.4-.08.33-.05.5.18.57.52.29.98-1.02,1.16-1.82.86-1.11-.65-2.77-1.22-4.06-.64-.45.29-.24.86-.68,1.21-.54.5-1.18,1.03-1.98.87-.76-.08-1.11-1.46-.07-1.18.47.17.69-.65.95-.9.14-.18.32-.38.27-.48-.08-.23-1.66.02-1.78-.16l-.06-.08Z"/>
        <path class="uuid-4b2cfc97-0aa8-470f-bd61-3353ecc0371a" d="M970.15,165.93c-.21.22-.61.27-.88.59-.25.29-.57.82-.24.7.36-.14.93.12,1.13.49.22.38.1.93.58,1.12,1.02.52,2.03-.18,3.08,0,.4.05.55.33.83.53.42.3.95.05,1.39-.03.33-.06.71-.09,1.04-.23.78-.43.94-.1,1.29.55.23.37.69.52,1.14.53.58-.01,1.26-.04,1.56.07.31.09.46-.07,1-.1.63.03,1.68-.07,2.22.14.96.79.32,3.35-1.17,2.56-.33-.24-.33-.75-.69-.97-1.34-.62-2.63-.26-4.22-.32-.43,0-.84.02-1.21-.07-.52-.28-1.11-.48-1.74-.26-.95.25-1.77-.23-2.64-.38-1.28,0-2.66.07-3.78-.59-.98-1.2-1.48.26-2.42.47-.88-.07-.66-1.07-.41-1.68.35-1.64,1.8-2.73,2.72-4.16.8-.94.04-1.76,1.18-2.27,1.05-.6,1.7.64,1.29,1.49-.35.56-.7,1.15-.95,1.76l-.08.09Z"/>
        <path class="uuid-4b2cfc97-0aa8-470f-bd61-3353ecc0371a" d="M963.13,165.99c-.22.34.09.86-.19,1.18-.15.2-.45.37-.67.39-.27.03-.47-.15-.76-.4-.23-.21-.48-.44-.61-.61-.32-.42-.36-1.33.16-1.68.35-.26.84-.32,1.18-.52.35-.23.6-.53,1-.5.35,0,.73.04,1.07-.02.47-.08,1.01-.38,1.49-.08.51.32.6.59.58,1.25-.02.5.08,1.03-.19,1.46-.17.25-.42.48-.57.75-.3.59-.51,1.17-.88,1.78-.44.62-.61,1.49-1.21,1.93-.36.14-1.02.15-1.11-.13-.09-.22.09-.53.27-.78.45-.84.49-1.41,1.13-2.31.38-.64.78-1.26.85-1.62.08-.68-1.15-.37-1.45-.16l-.08.08Z"/>
        <path class="uuid-4b2cfc97-0aa8-470f-bd61-3353ecc0371a" d="M1036.34,284.74c-.28.16-1.58.05-1.99.13-1.24.18-2.62.53-3.79-.11-1.37-.77,1.04-1.29,1.67-1.36,1.79-.25,3.69.14,5.41-.53.31.02.53.33.36.6-.41.56-1.56.43-1.61,1.22l-.04.05Z"/>
        <path class="uuid-4b2cfc97-0aa8-470f-bd61-3353ecc0371a" d="M1128.2,275.38c1.32.28,2.84.07,4.14-.06.2-.07.23-.4.44-.46.73-.23.92.23.38.74-.61.52-1.74.56-2.42.65-1.04.11-2.45.33-3.54.25-.22-.02-.42-.17-.62-.24-.44-.12-1.04.07-1.5-.05-.19-.05-.39-.17-.58-.19-.24-.03-.5.1-.63-.06-.13-.33-.19-.7.25-.82.7-.49,1.29-.41,1.97-.01.59.19,1.57-.26,2.06.22l.05.04Z"/>
        <path class="uuid-4b2cfc97-0aa8-470f-bd61-3353ecc0371a" d="M1064.8,219.53c.02.37.06.98-.14,1.33-.32.6-.49,1.48-1,1.95-.25.18-.71.13-.94-.14-.2-.42.15-1,.26-1.38.16-.46.04-1.03.29-1.45.32-.57.95-.55,1.49-.36l.05.06Z"/>
        <path class="uuid-4b2cfc97-0aa8-470f-bd61-3353ecc0371a" d="M1109.14,167.01c-.12.39-1.9-.18-2.17-.5-.15-.18.13-1.14.24-1.32.02-.03.54-.34.59-.35.22-.07.54-.07.76,0,.15.05.58.47.58.59v1.58Z"/>
        <path class="uuid-4b2cfc97-0aa8-470f-bd61-3353ecc0371a" d="M1021.65,284.59c.19-.15.81-.18.98.01.03.03.37.64.39.69.1.3.04.78.12,1.04.06.19.4.24.11.48-.41.34-1.43.21-1.75-.17-.06-.07-.45-.8-.45-.87,0-.22.43-1.05.6-1.19Z"/>
        <path class="uuid-4b2cfc97-0aa8-470f-bd61-3353ecc0371a" d="M1066.72,173.87c.03.76-1.2.99-1.61,1.5-.59.74-1.07,1.56-2.04,1.9-.36.17-.49.44-.81.35-.39-.12-.97-.58-1.12-1.02-.07-.34.36-.91.47-1.22.03-.17-.19.02-.4.07-.71.13-.57-1.03-.43-1.44-.1-.05.44-.3.46-.23l.26.05c.28.15.27.66.62.74.25.07.62-.16.9-.29.45-.21,1.02-.29,1.46-.5.24-.1.3-.29.44-.48.49-.66,1.19-1.94,1.78-2.58.15-.07.65,0,.86.21.23.2.14.37.01.65-.13.28-.34.64-.54.99-.2.49-.77.89-.37,1.24l.04.06Z"/>
        <path class="uuid-4b2cfc97-0aa8-470f-bd61-3353ecc0371a" d="M1078.8,167.18c.44.51.28,1.1-.15,1.59-.34.52-.68,1.12-.75,1.74-.08.77.44,1.25.33,2.04,0,.41.28.86.16,1.2-.1.28-.19.59-.3.86-.41.64-1.52,1.64-1.99,1.91-.63.21-2.05.27-2.78-.01-.35-.12-.7-.25-1.06-.29-.83-.02-1.77,1.2-1.95-.33-.22-.64.14-.82.53-1.31.39-.82.89-1.55,1.29-2.38.29-.43.74-.4,1.03-.89.38-.56.28-1.05.85-1.4.63-.63.09-.6-.62-.33-.59.15-1.18.87-1.79.82-1.16-.39.04-1.46.58-1.99,1.07-.81,2.97-1.23,4.18-1.41.39-.02.77-.22,1.15-.21.37.03.87.2,1.2.33l.09.07ZM1075.57,170.84c-.82.76-1.9,2.18-2.42,3.14.28.52.97.96,1.68.79.52-.13,1.34-.09,1.56-.63.15-.57.22-1.56,0-2.14-.19-.34-.38-1-.74-1.19l-.07.02Z"/>
        <path class="uuid-4b2cfc97-0aa8-470f-bd61-3353ecc0371a" d="M1079.95,174.16c1.68-.35.84,1.37.1,1.85-.56.36-1.43-.84-.91-1.41.1-.11.66-.42.8-.45Z"/>
        <path class="uuid-4b2cfc97-0aa8-470f-bd61-3353ecc0371a" d="M1084.78,231.26c.37.3.27.74.4,1.05.04.1.19.18.25.33.17.46-.09.53-.5.51-.34-.01-1.34-.48-1.44-.82-.2-.67.91-1.39,1.29-1.08Z"/>
        <path class="uuid-4b2cfc97-0aa8-470f-bd61-3353ecc0371a" d="M1043.98,195.16c-.5.01-1.03.81-1.52,1.22-.6.58-1.66,1.35-2.17.38-.16-.31-.29-.56-.51-.61-.32-.07-.84.13-1.29.16-.4.07-.78,0-1.11-.02-.46.04-.89.22-1.46-.22-.27-.16-.56-.37-.87-.42-.58-.1-1.29.55-2.06.49-.53-.01-.99-.33-1.42-.59-.68-.4-1.36.21-2.03.35-1,.26-2.57.51-3.32.24-.76-.19-1.51.55-2.31.44-.31-.02-.61-.13-.88-.27-.8-.46-1.6-.9-2.2-1.63-.15-.14-.35-.3-.56-.3-.57.04-.98.49-1.59.54-1.27.17-3.18.41-4-.68-.51-.73-1.2-.2-1.85.09-2.04,1.03-5.45.37-4.31-2.52.19-.59,1.18-1.97,1.85-1.45.47.49.05,1.22.04,1.8-.03.99,1.36.82,1.97.71.4-.07.83-.16,1.19-.42.89-.54,2.32-4.07,3.19-1.68.05.51-.48,1.33-.22,1.81.69.93,2.48.73,3.3.16.62-.43.82-1.21,1.32-1.76.43-.77,4.42-4.46,4.55-2.12-.47,1.41-1.58,2.34-2.59,3.43-.39.41-.64.76-.48,1,.17.28.3.52.41.84.3.78,1.03,1.13,1.86,1.04,1.31-.2,3.09-3.16,4.11-.97.24.37.7.29,1.07.1.47-.28.9-.54,1.27-1.01.43-.78.73-1.57,1.27-2.3,1.1-2.64,4.53-1.85,6.83-1.93,1.26.16.7,1.17-.26,1.18-.74-.15-1.95-.35-2.6.33-.65.52-4.92,4.96-1.63,3.59.71-.31,1.26-.79,1.91-.4.67.62,1.63,1.01,2.48.66.29-.08.26-.04.63-.09.5.01,1.25-.78,1.79-1.13.24-.1.42-.06.65.14.33.28.67.67.94.63.76-.19,1.82-1.22,2.67-.65.42.27.1.87.45,1.08.47.17.66.08,1.07.21.62.28,1.4.75,1.61,1.43.13.39-.22,1.29-.71,1.39-.69.14-1.22-.64-1.9-.73-.78-.37-2.43.5-2.41-.88-.02-.17-.01-.45-.08-.58l-.04-.05Z"/>
        <path class="uuid-4b2cfc97-0aa8-470f-bd61-3353ecc0371a" d="M994.31,197.61c.16-1.32.87-2.69,1.25-4.01.02-.19-.07-.24-.25-.21-.32.05-.8.22-1.15.13-.73-.18-1.03-1.05-.63-1.7.33-.63.86-.99,1.4-1.31.42-.25.74-.49,1.28-.29.37.13.83.66,1.17.51,1.17-.8,1.81-2.62,3.14-3.3.23-.14.79-.14.8.31-.54,1.29-2.05,2.61-2.77,3.79,0,.27.49-.09.75-.16.88-.24,1.94-.11,2.81.14.73.29.07.94-.53.95-.54.11-1.13-.15-1.63-.01-.29.08-.57.29-.8.47-.93.8-1.88,2.29-2.61,3.32-.59.75-.89,2.33-1.72,2.91-.72.44-.52-1.02-.52-1.4v-.13Z"/>
        <path class="uuid-4b2cfc97-0aa8-470f-bd61-3353ecc0371a" d="M1051.88,197.81c-.02.29-.08,1.33-.46,1.33h-1.63c.02-.28-.06-.63.09-.87.04-.06.66-.47.7-.47h1.29Z"/>
        <path class="uuid-4b2cfc97-0aa8-470f-bd61-3353ecc0371a" d="M1104.92,199.91s.78-.42.86-.43c.93-.16,1.11.04.83.91-.14.44-.47.49-.92.48-.47-.01-1.11-.63-.77-.96Z"/>
        <path class="uuid-4b2cfc97-0aa8-470f-bd61-3353ecc0371a" d="M1050.14,209.38c-.19-.68.39-1.36.99-1.61,1.56-.66-.12,2.22-.99,1.61Z"/>
        <path class="uuid-4b2cfc97-0aa8-470f-bd61-3353ecc0371a" d="M975.46,207.37l.19.02c.06-.02.06-.14.1-.16.62-.46-.07.66-.06.9-.54.11-1.09.09-1.62-.07-.07-.2-.08-.73.1-.85.19-.12,1.28-.2,1.29.15Z"/>
        <path class="uuid-4b2cfc97-0aa8-470f-bd61-3353ecc0371a" d="M1059.38,278.23c-.24-.01-.91-.19-.9-.47,0-.31.64-.28.78-.61.35-.08.17.9.12,1.08Z"/>
        <path class="uuid-4b2cfc97-0aa8-470f-bd61-3353ecc0371a" d="M982.06,277.66c-.92,1.05-2.56,1.27-3.55,2.1-.34.36-.6.9-.86,1.38-.28.51-.26.84.2,1.08,1.42.49,2.73,2.06,4.32,1.33.55-.14,1.26-.05,1.94-.31,1.28-.19,2.29-.69,3.22-.07.09.02.19-.03.34-.16.47-.48,1.22-.92,1.9-1.1,1.31-.17,3.86-1.24,4.5.22.11.36-.14.78-.14,1.14.05.91,1.25-.56,1.67-.59,1.61-.86,1.21,1.22,2.64.69.44-.18.82-.51,1.32-.44,1.11.19,1.93,1.76,2.96,2.01.49.13,1.36.39,1.67-.1.14-.32-.2-.84.03-1.06.13-.15.44-.27.75-.36.81-.31,1.55.33,2.3.54,1.1-.05,2.41-.12,3.53-.45.23-.05.5-.11.74-.07.68-.05,1.39,1.22,1.96,1.13.64-.43.41-1.5.19-2.13-.45-1.34-2.49-1.52-2.4-3.1-.09-2.02,3.21-2.09,3.52-.25.23,1.17,1.08,1.8,1.92,2.52.42.41,1.18,1.04.96,1.62-.46.63-2.23-.53-2.43.73-.21,1.52-1.71,3.21-3.31,2.28-.92-.4-1.65-1.43-2.76-1.24-1.34.37-2.83.16-4.07.67-.91.43-1.7,1.2-2.78,1.09-.86-.06-1.8-.49-2.61-.96-.57-.38-.98-.92-1.62-.88-.3.05-.66.15-.89.35-.31.28-.4.77-.67,1.1-.14.17-.34.26-.54.22-.37-.06-.55-.51-.63-.96-.25-1.69-1.45-.43-2.14.27-.42.39-.82.93-1.25,1.07-.73.21-.99-.6-.56-1.24.36-.67.86-1.67.34-2.36-.81-.51-2.1-.12-2.99.15-.99.34-.96,1.73-1.44,2.69-.22.48-.53.95-.88,1.35-.96,1.27-2.03.85-1.69-.77,0-.67.82-2.1.08-2.48-.66-.15-1.71.72-2.05,1.37-.34.66-.32,1.61-1.14,2-.8.42-1.45-.37-1.21-1.14.06-.42.37-.9.16-1.29-.27-.44-1-.34-1.44-.47-.73-.15-1.53-.74-2.11-.93-1.71.28-2.12,5.13-2.42,6.71-.12.73-.21,2.15-1.23,1.97-.18-.06-.28-.21-.28-.39.03-.46.38-1.11.41-1.68.13-2.16,1.12-4.45,1.12-6.49-.15-.52-1.36-.19-1.31-.83.44-1.04,1.77-.74,2.52-1.37.31-.38,1.09-1.74.7-2.15-.17-.13-.41-.19-.52-.39-.21-.37.07-1.03.53-1.13.55-.14,1.18.03,1.62-.4,1.16-1.03,2.16-2.74,3.82-3.43,1.22-.46,2.12.39,1.35,1.64-.36.62-.78,1.19-1.2,1.65l-.1.09ZM982.7,275.48c-.2,0-.41-.02-.61.02-.35.07-1.81,1.54-2.1,1.9-.11.14-.28.32-.29.5.18.16,1.34-.5,1.54-.67.25-.21.38-.47.59-.66.32-.31.94-.47.88-1.08ZM987.2,283.65c-.21.93-.96,1.74-1.27,2.61-.1.27.17.31.34.09.3-.4.88-1.92.99-2.43.02-.08.08-.29-.06-.27Z"/>
        <path class="uuid-4b2cfc97-0aa8-470f-bd61-3353ecc0371a" d="M1043.43,235.9c.28.18,1.08.22,1.55.28.6-.02,1.11-.41,1.74-.24.51.11,1.21.13,1.78.05.57-.08.78.11,1.36.29,2.68.46,5.43,1.04,7.97,2.13.27.16.35.42.24.63-.1.21-.35.32-.65.28-.65-.14-1.49-.42-2.28-.57-2.26-.33-4.48-1.53-6.74-.92-1.72-.53-3.83-.35-5.58.14-.74.18-1.73.33-2.03,1.13-.26.94.99,1.13,1.67,1.09,1.17.07,1.68-.69,2.71-1.07,1.27-.57,1.77-.09,1.27,1.24-.05.85,1.09.36,1.65.23.7-.15,1.6-.71,2.14-.14.38.6.78,1.71.19,2.31-.65.64-1.36-.32-1.93-.53-.78-.14-1.59.35-2.51.32-.95.03-1.61-.21-1.99-.87-.49-.49-1.3.16-1.86.25-1.09.26-2.64-.25-3.27-1.28-.22-.22-.5-.23-.78-.11-1.36.68-3.07.88-4.57.68-.47-.05-.85.34-1.31.41-.46.03-.89-.23-1.37-.19-.93,0-1.77.4-2.72.39-.73-.02-1.31-.45-2.04-.33-1.69.39-3.39,1.56-5.08,1.27-1.07-.75-.67-2.39-.45-3.54.24-1.41-.94-.47-1.67-.27-2.75,1.01-4.78,4.06-5.48,6.8-.22,1.28-1.26,1.76-1.37.08.09-.99.63-1.68.59-2.77.08-.88-.09-1.42-.13-2.08.07-.88.17-1.82.2-2.73.12-1.52,1.27-2.64,2.42-3.48.87-.64,2.44.29,2.61,1.28.14.63.1,1.28-.14,1.93,0,.08-.06.16.02.22,1.27-.49,2.73-1.72,4.18-1.35,1.64.74-.79,3.36.93,4.03.7.15,2.07-.04,2.18-1.03.05-.43.21-.76.45-1.13.39-1.24,2.47-2.6,3.41-1.35.42.76-.59,1.37-.8,2.02-.12.34.07.61.45.8.91.48,2.26.29,3.06-.25.55-.45.99-1.2,1.75-1.3.86-.19,1.52.78,2.25.93.76.1,1.66-.01,2.52-.28,1.26-.39,1.22-1.63,1.71-2.73.61-1.57,1.24-2.97,2.66-4.02.79-.74,1.92-.35,1.81.85,0,.69-.26,1.3-.6,1.86-.09.19-.26.39-.16.58l.05.06ZM1042.21,235.15c-.22-.21-.47.55-.58.71-.19.26-.54.45-.72.65-.08.09-.14.28.02.31.55.11,1.51-1.46,1.29-1.67ZM1017.18,238.55l-.42-.16c-.28-.48-.02-1.09-.32-1.58-.62-1.22-1.15-.46-1.7.39-.39.55-.75,1.42-.71,1.96-.01.39,0,1.2.19,1.28.05.07.38-.15.44-.16.04,0-.14.18-.21.26-.08.11,0,.23.11.25.2.02.49-.44.64-.58.4-.35,1.86-1.21,2.02-1.64l-.03-.02Z"/>
        <path class="uuid-4b2cfc97-0aa8-470f-bd61-3353ecc0371a" d="M961.82,236.64c.8,1.83-1.27,3.72-1.33,5.53.42,1.31,2.05.6,2.84.01.9-.85,1.77-1.91,2.92-2.52,1.35-.96,2.4.22.78,1.13-.44.25-1.05.55-1.13.72-.03.04,0,.06.05.05.25-.04,1.16-.58,1.79-.66.46-.09.73.03,1.18.1.73.18,1.45-.06,2.06-.42.68-.22,1.66-.89,2.24-1.35.78-.85,1.2-1.88,2.16-2.67,1.52-1.44.76-1.67-1.08-1.3-1.43.36-1.17-.32-.34-.85,1.21-.56,3.38-.62,4.73-.9.59-.09,1.26-.07,1.87-.28.39-.15.64-.5.99-.74.26-.17.63-.22.89-.04.27.19.39.56.68.7.25.14.61.13.95.19.9.25,1.9.05,2.78.4.24.09.5.18.75.23.91.13,2.24.19,2.93.82.24.24.16.56-.27.57-2.21.1-4.2-.91-6.42-1.01-.67.09-1.46-.02-1.88.6-.35.58-.69,1.37-.85,2.02-.11.69-.75,1.38-.87,2.11.04.47.63.47.84.88.17.3.34.69.69.89,1.06.66,2.87.47,3.93-.21.74-.47,1.29-1.36,2.18-1.58.65-.2,1.16.48.84,1.04-.15.3-.54.42-.74.65-.38.59.64.5,1.05.38,1.04-.13,2.16-1.02,3.14-.71.34.21.68.57.98.8.55.41.33,1.66-.41,1.75-1.11.29-1.59-.94-2.52-1.03-1.49.12-3.2,1.79-4.67.75-.21-.17-.38-.3-.67-.28-.66.09-1.39.13-2.05.28-.91.27-1.86-.15-2.76-.31-.55-.02-1.03.64-1.57.39-.62-.22-.22-1.73-.53-1.96-.1,0-.27.39-.53.59-1.28.69-3.53,2.83-4.25.37-.11-.39-.32-.91-.79-.8-.65.19-1.15.83-1.78,1.09-1.06.55-2.43.53-3.44.32-.9.22-2.05.97-2.85.58-.77-.3-1.35.49-2.03.82-.93.53-2.07.87-2.91.02-1.17-1.69.74-3.62.96-5.39.08-.36-.03-.52-.39-.18-1.02,1.21-2.49,1.39-1.42-.55.73-.79,2.16-1.67,3.23-1.14l.08.08ZM977.77,235.28c.45.28.03.55-.19.84-.24.32-.19.79-.46,1.09-.67.91-2,1.54-2.46,2.72-.47,1.12.05,1.55,1.1,1.27,1.88-1.46,2.74-4.11,4.08-6.06.02.04.18-.6.09-.53-.06-.19-.38-.04-.58.02-.17.05-.29-.04-.44-.05-.18,0-.34.18-.61.19-.21.02-.47-.01-.64.05-.31.12-.09.36.04.4l.06.05Z"/>
        <path class="uuid-4b2cfc97-0aa8-470f-bd61-3353ecc0371a" d="M987.06,215.49c.09.31-.27,1.36-.52,1.6-.56.41-1.8,0-2.51-.31-1.06-.73-2.35-.93-3.65-.96-1.73-.53-3.56,1.12-5.22-.09-1.26-1.11-1.94,1.07-3.11,1.29-1.3.02-.28-2.13-.4-2.9.35-2.28-4.95,3.33-6.12,2.85-1.67-.04.59-2.91-1.49-2.55-1.28.17-2.5-.22-2.28,1.59-.18.57-.65,1.2-.73,1.87-.29.74-.14,1.28-.4,1.87-.18.32-.67.75-.95.89-.65.19-.26-.88-.14-1.19.4-.83.37-1.88.63-2.76.13-.56.44-1.19.38-1.76-.04-.37-.55-.4-.84-.63-.12-.1-.17-.23-.13-.38.17-.64,1.07-.65,1.52-.94.34-.19.67-1.11.38-1.39-.17-.15-.66-.04-.87-.2-.11-.08-.15-.22-.1-.39.19-.8,1.13-.86,1.73-1.22.76-.53,1.2-1.49,1.52-2.27.36-.89.97-2.15,1.98-2.66,1.89-.57,1.05,1.99.39,2.78-.93,1.5-3.23,2.79-3.01,4.73.46.95,1.86.26,2.76.45.69.1,1.27.32,1.2.92-.02.3-.19.91.27.89.23,0,.56-.26.85-.44.82-.43,1.68-.79,2.43-1.4.6-.29,1.11-.52,1.66-.88.88-.34,1.19.04,1.11,1.14-.05,1.64.14,1.36,1.18.67.47-.29.94-.41,1.36-.14.43.27.78.73,1.21.85.61.16,1.44.14,1.98.02.83-.19,1.76-1.14,2.67-1.14.63-.01.53.87.82,1.1.89.37,3.47.86,4.42,1.03l.05.06ZM965.69,206.64c-.21-.24-.74.92-.77.97-.03.04-.95.75-.43.86.27.05.44-.75.54-.88s.9-.69.67-.95Z"/>
        <path class="uuid-4b2cfc97-0aa8-470f-bd61-3353ecc0371a" d="M992.4,208.01c.95,1.31-.57,2.88-1.05,4.08,0,.04-.03.13-.03.18.14.2,1.01-.17,1.32-.2,1-.45,2.13-.05,3.07.33.38.16.64.42.72.8.04.3-.08.59-.44.59-1.55.19-2.99-.15-4.54-.12-.28.03-.55-.14-.67.16-.42,1.04-1.03,2.53-1.46,3.6-.38,1.16-.66.61-.88-.23-.07-.31.19-.66.24-1.08.13-1.03.06-2.1.61-2.91.41-.65.4-1.29,1.01-1.89.23-.28.51-.57.62-.91.19-.47.11-1.22.26-1.69.16-.4.84-.84,1.14-.77l.09.04Z"/>
        <path class="uuid-4b2cfc97-0aa8-470f-bd61-3353ecc0371a" d="M1093.55,233.87c.38.21,1.35.16,1.83.26.37.04.96-.1,1.5-.12.41,0,.79.09,1.17.04,1.23-.24,3.21.1,4.48-.14.67-.09,1.54-.15,2.2-.55.18-.09.42-.22.6-.22.36-.03.66.33,1.14.45.5.1,1.07.06,1.58.06,1.05-.08,1.9.13,2.93-.13.7-.11,1.49.12,2.12.19,1.64.14,3.75.1,5.37-.32,1.17.24,2.51.36,3.73.28,1.07.2,1.98.12,3.06,0,3.96.29,7.93-.39,11.71-1.27.5-.15,2.13-.58,1.17.22-1.41.64-3.11.7-4.63,1-1.74.29-3.48.8-5.2.75-.95-.01-1.75.35-2.71.39-2.21.2-4.81-.52-6.97.17-1.82,1.31-2.72,3.54-3.58,5.56-.14.95,1.04-.13,1.39-.41.47-.43,1.5-1.07,1.66-.11.12.97-1.46,2.69.35,2.82,1.76.06,3.19-1.29,4.6-2.12.2-.13.46-.24.7-.19,1.29.68,2.92-.91,4.24-.4.42.24.37.88.65,1.07.3.24,1.11.06,1.53.41,1,.85.24,2.37-1.04,1.67-1.3-1.27-2.46.81-3.75.76-1.49-.28.13-1.43.52-1.98.16-.24.09-.38-.15-.36-.98.18-2.22,1.02-2.79,1.92-.48.7-.94,1.79-1.63,1.36-.52-.29-.15-1.29-.82-1.31-1.47.36-3.36,1.54-4.57.07-.37-.49-.8-.96-1.45-.89-.41.03-1.02.08-1.24-.45-.21-.34.11-1.86-.66-1.35-1.24,1.01-3.51,2.76-5,1.35-.78-1.29.18-2.88,1.32-3.63.66-.55,1.25-1.11,1.94-.58.52.36,1.54,1.43.68,1.89-.47.24-1.19-.26-1.66-.14-1.02.43-1.01,1.77.39,1.37,1.42-.54,3.66-2.45,4.36-4.09.29-.48,2.53-2.16,1.14-2.39-.94-.03-2.01.15-2.87.04-.78-.16-1.56-.11-2.38-.09-1.25.29-2.11-.15-3.29.03-2.82.67-5.79,0-8.6.43-1.8.21-3.72.06-5.5.24-.91.03-1.34.99-1.61,1.74-.25.69-.82,2.09.27,2.33.45.09.96-.18,1.39-.23.49-.07.82.33,1.36.2.36-.07.74-.26,1.1-.41,1.4-.65,2.24-1,3.54-1.43.55-.2,1.23-.34,1.6.22.27.37.55.75.96.87.36.12.75.19.93.51.32.64.2,1.51.47,2.14.17.48.2,1.04-.12,1.23-.69.43-1.47-.31-1.61-1.02-.25-1.06-1.08-.93-1.9-.25-.52.47-1.27.64-1.41-.06-.14-.58.57-1.19.52-1.74-.3-.84-1.48.02-2.09.24-1.1.54-1.99,1.4-3.27,1.26-.99-.22-2.11.26-3.06-.27-.64-.31-.92-1-.74-1.68.57-2.61,2.01-5.51,4.15-7.07.53-.17.72.45.4.96-.21.36-.55.68-.51.85l.03.06Z"/>
        <path class="uuid-4b2cfc97-0aa8-470f-bd61-3353ecc0371a" d="M1083.92,242.01c-.09-.14-.06-.38-.13-.58-.18-.54-.87-.32-1.31-.34-1.79.11-4.37.83-5.89.09-.34-.19-.71-.47-.9-.82-.18-.29-.22-.7-.6-.72-1.17.26-2.56.69-3.58,1.37-.19.09-.41.18-.62.08-.52-.2-.67-.74-.59-1.16.02-.44-.38-.66-.69-.95-1.76-1.61-1.21-3.35-.04-5.24.21-.44.73-.63,1.05-.87.19-.15.34-.35.59-.5.82-.46,2.36-.91,2.67.31.22.5.19,1.01,0,1.53-.24.88.05,1.83-.18,2.7-.13.52-.39,1.34.36,1.48,1.14.27,3.1-1.42,3.83-.05.13.41-.31.77-.17,1.04.12.22.74.49,1.08.61.32.08.5-.05.74-.03.56.15,1.11-.08,1.7-.13.31,0,.62.02.92-.01.91-.2,1.78-.42,2.75-.5.42-.03.95.05,1.12.48.27.58-.18,1.93-.65,2.25-.41.14-1.01.19-1.4.03l-.07-.07ZM1073.05,233.64c-.09-.03-1.39.23-1.54.39-.14.1-.41.32-.64.52-.84.67-1.29,1.56-.51,2.45.15.21,1.65,1.89,1.73.83.1-.5.39-.96.39-1.48-.03-.18.27-.32.19-.44-.06-.07-.21-.13-.18-.28.09-.28.3-.49.31-.81.03-.37.35-.72.28-1.14l-.03-.06Z"/>
        <path class="uuid-4b2cfc97-0aa8-470f-bd61-3353ecc0371a" d="M1047.19,174.61c.55-1.09,1.05-2.58,1.88-3.46.17-.19.3-.37.4-.62.77-1.63,2.68-3.17,3.48-4.85.08-.16.2-.32.33-.45.41-.34,1.39-.33,1.5.14.04.14.11.3.17.43.28.36,1.12.21,1.19.63.07.5-.19,1.09-.34,1.58-.72,1.98-.87,4.4-2.14,6.23-.33.61-.3,1.3-.73,1.85-.37.38-1.51,1.04-1.97.56-.47-.61.75-1.96.26-2.85-1.07-1.67-2.9.79-2.84,1.86.03.42-.01.99-.39,1.4-.49.68-1.51.22-1.54-.55,0-.58.28-1.43.67-1.83l.07-.09ZM1054.09,167.13c-.18,0-.4.25-.48.51-.19.52-.66.72-1,1.13-.43.58-.65.95-1.19,1.52-.36.41-.72.96-.95,1.45,0,.14.48.04.74.06.42-.11.81.47,1.19.27.34-.39.64-1.14.86-1.64.06-.11.03-.16-.08-.22-.21-.26.2-.42.22-.7.04-.9.6-1.52.75-2.36h-.05Z"/>
        <path class="uuid-4b2cfc97-0aa8-470f-bd61-3353ecc0371a" d="M1041.44,178.77c-.09-.62.06-.77.61-1.01.32-.15.33-.43.62-.56.22-.03.47-.09.66.06.08.08.09.19.19.18.12,0,.23-.24.38-.29.12-.04.22-.03.4-.04.63.02,1.31-.1,1.91.17.32.14.75.36.87.5.09.11-.31.69-.48.74-.27.09-.95.05-1.39.04-1.19,0-2.52.31-3.71.26l-.05-.04Z"/>
        <path class="uuid-4b2cfc97-0aa8-470f-bd61-3353ecc0371a" d="M1051.85,177.3c.63-.59,2.12-.73,2.57.22.15.3.52.53.62.8.09.72-.68.98-1.33.76-.4-.08-.81-.41-1.05-.65-.11-.06-.42.2-.57.15-.51-.16-.69-.85-.3-1.22l.07-.07Z"/>
        <path class="uuid-4b2cfc97-0aa8-470f-bd61-3353ecc0371a" d="M1098.93,277.37c.39-.24,2.16-.44,1.43.49-1.09,1-1.89,2.46-2.72,3.64-.32.88,1.08.69,1.61.58.77-.15,1.24-.98,1.91-1.35.43-.25.94.02.6.56-1.13,1.55,1.84.48,2.05-.31,1.12-2.56,3.23-4.7,5.8-5.78,1.4-.37,1.33.72.45,1.39-1.54,1.23-2.84,2.79-4.42,3.99-.26.21-.54.41-.64.73-.37,2.49,2.77,1.42,4.05.63.36-.24,3.02-1.53,2.54-.58-.6.47-.46.58.21.76,1.68.32,3.14-.99,4.1-2.17.72-1.47,2.02-2.49,3.27-3.45.52-.4.88-.92,1.47-1.01,1.55-.13.23,1.09-.23,1.58-.85,1.23-2.52,2.38-3.49,3.27-.48.37-.54,1.31.2,1.27,1.2-.17,2.4-.64,3.33-1.44.41-.37,1.63-1.06,2-.49-.1.34-1.39.88-1.65,1.39-.88,1.72,2.92,0,3.53-.1.36-.08.73.02,1.1.03.52.04,1-.22,1.49-.35.58-.13,2.08-.5,1.74.64-.06.38-.04.84.3.63.25-.23.46-.8.77-.55.89.85.32,2.06-.92,2.07-.54,0-1.29-.24-1.77-.61-.32-.24-.14-.75-.36-.98-.48.07-.9.66-1.49.77-.45.13-.87.45-1.23.68-.43.3-.88-.07-.82-.6.04-.36.24-.67.06-.68-1.03.24-2.04.95-3.17.82-.36,0-.6-.18-.64-.46-.06-.28-.14-.56-.39-.52-1.02.34-2.57,1.12-3.6.35-.19-.13-.34-.24-.58-.17-.55.2-1.14.79-1.68.97-.93.25-1.69.37-2.66-.03-1.95-.5-3.83,1.17-5.84.45-.37-.09-.68-.38-.91-.61-.49-.45-1.2.06-1.74.17-1.08.4-2.02-.26-3.11-.02-.43.11-.86.31-1.31.32-3.08-.25-.11-3.02.73-4.32.29-.4,0-.74-.26-1.08-.24-.44.45-.38.8-.48l.11-.03ZM1108.06,277.32c-.15,0-.29.13-.41.22-.25.19-1.72,1.43-1.51,1.7.41-.15.59-.62.87-.92.34-.35.75-.61,1.04-1Z"/>
        <path class="uuid-4b2cfc97-0aa8-470f-bd61-3353ecc0371a" d="M1059.26,284.98c-.34-.39-.98-.73-1.36-1.18-.13-.12-.29-.24-.45-.31-.87-.21-1.6-.09-2.43-.74-.82-.39-.97-1.12-1.68-1.28-.59.04-1.37.2-2,.27-1.36.18-1.67,1.9-2.55,2.62-.39.27-1.73.75-1.77.03.14-1.47.95-2.96,1.55-4.3.27-.45.58-.96.59-1.51-.02-.39-.15-.69.12-1.02,1.38-1.06,2.24-2.77,3.69-3.74,1.23-.36.08,1.78-.39,2.01-.67.45-.93,1.34-1.44,1.93-.3.48-.59,1.05-.81,1.48-.08.19.54-.07.86.13.39.33.57,1.16,1.1,1.21,1.41-.05,2.9-1.18,4.25-1.58.31-.03.52.19.37.56-.49.95-2.19,1.31-.67,2.17.47.17.9.25,1.21.49.16.1.32.18.52.15,1.05-.38,2.29-1.66,3.49-1.07.09.06.14.14.14.23,0,.75-1.99.81-1.97,1.51.12.09.2.04.36-.03.45-.2,1.13-.82,1.63-.57.22.16.18.56.06.8-.16.39-.27.56.13.62.4.06.98.05,1.38-.06.92-.31,1.79-1.32,2.85-1.27.11.04.09.16-.05.31-.37.37-1.01.62-1.51.84-1.51.63-3.37,1.88-5.16,1.37l-.08-.05ZM1048.69,283.46c.07-.07.87-1.66.9-1.81.07-.35-.1-.71.03-1.09-.27.23-.74.72-.81,1.06-.05.2,0,.41-.06.61-.09.31-.73.68-.62,1.1.06.24.38.29.55.12Z"/>
        <path class="uuid-4b2cfc97-0aa8-470f-bd61-3353ecc0371a" d="M1090.15,281.25c.07.7-1.41,1.05-1.91,1.44-1.22.55-1.06,1.78-1.09,2.82-.09,1.69-.68,3.14-1.65,4.52-.37.65-1.18,1.09-.74.07.92-1.73,1.39-3.46,1.43-5.4,0-.35-.1-.78-.56-.64-1.38.74-3.21.65-4.27-.69-.19-.32.28-.88.32-1.24,0-.59-1.24.07-1.59.22-.74.48-1.25,1.34-2.19,1.48-.51.14-1.26.76-1.56.33-.14-.22-.14-.49-.07-.73.16-.49.8-.93,1.08-1.27.16-.18.15-.25-.05-.16-1.2.7-2.68,1.74-3.84,2.48-1.22.52-3.2,1.55-3.85-.23-.13-.47-.49-.7-.97-.57-.43.09-1.68.34-1.45-.37.1-.27.08-.41-.25-.5-.71-.18-.77-.82.05-1,.76-.1,1.53-.4,2.28-.56.19-.01.19-.05.55.02.4.13.52.55.85.84.15.16.32.31.39.5.15.37-.09.91.28,1.21.83.57,1.82-.25,2.6-.43,1.06-.19,2-1.18,2.81-1.71.69-.39,1.45-.9,2.16-1.29.32-.15.79-.01.58.4-.42.61-1.21,1.36-1.28,2.14.76-.12,2.53-1.73,3.19-1.78.42-.02,1.4-.25,1.81.18.23.32-.41.83-.25,1.41.29,1.04,1.84,1.12,2.63.62.57-.3.92-.82,1.34-1.26.88-.81,1.99-1.34,3.12-.93l.05.05Z"/>
        <path class="uuid-4b2cfc97-0aa8-470f-bd61-3353ecc0371a" d="M1100.72,219.93c.15.8,1.6.98,1.43,1.89-.09.29-.33.52-.6.64-.36.11-.63-.38-.94-.55-.34-.2-.8-.43-1.19-.38-.57.08-.66.8-1.1,1.06-.25.15-.53.46-.73.51-.2,0-.49-.2-.84-.14-.61.03-1.09.05-1.11-.66-.06-.61-.06-1.58.09-1.91.09-.21.47-.28.69-.45.58-.67,1.57-.82,2.27-1.39.27-.29.52-.57.99-.41.46.13.47.62.47,1.08-.04.45.18.58.5.67l.06.05Z"/>
        <path class="uuid-4b2cfc97-0aa8-470f-bd61-3353ecc0371a" d="M1088.31,217.17c-.33.22-1.03.79-.88,1.27.22.4.43.99.65,1.41.44.6.76,1.92.04,2.44-.48.36-1.13.68-1.52,1-.7.61-1.59,1.28-2.58,1.07-.77.05-1.2-.95-1.73-1.37-.35-.21-1,.11-1.06-.46,0-1,.92-1.93,1.28-2.86.27-.65.54-1.33,1.03-1.81.55-.51,1.05-1.27,1.18-2.01.04-.49-.45-.36-.99-.37-.44,0-.86,0-1.24.07-.89.13-1.68.98-2.49,1.34-.58.13-1.22-.75-.92-1.35.38-.86,1.38-.8,2.17-1.07.86-.14,1.88.13,2.65-.26.5-.21,1.15-.04,1.61-.18.29-.08.58-.24.92-.26.5,0,.87.27,1.34.31.45.04,1.04.15,1.41.49.9.86-.19,1.84-.75,2.51l-.1.08ZM1086.87,215.59c-.82.39-1.35,1.76-1.77,2.35-.74,1.1-1.56,2.07-2.25,3.08,0,.12.26.14.46.15.51.02.5.77.97,1.06.63.76,1.19.35,1.9.02.6-.32.76-.69.68-1.4-.05-.73-.7-1.1-1.09-1.67-.2-.34-.67-.41-.64-.82.28-.85,4.44-2.88,1.85-2.78l-.09.02Z"/>
        <path class="uuid-4b2cfc97-0aa8-470f-bd61-3353ecc0371a" d="M1110.06,217.37c-.78.86-2.98.42-2.08-1.01.21-.23.64-.22.92-.33.24-.08.46-.22.77-.32.67-.27,1.38-.14,2.02.04.97-.04,1.76.36,2.67.64.54.29.9.04,1.44.21.98.45,1.63.92,2.33,1.9.25.35.47.7.23,1.12-1.12,3.14-4.8,5.32-8.03,5.55-.32,0-.69.01-.97-.06-.42-.17-1.05-.75-1.44-1.04-.3-.57-.26-1.86.47-2.15.51-.18.57-1.07,1.21-.85.66-.07.86-.69,1.42-1.41.46-.7.8-1.19,1.04-1.75.19-.48-.12-.64-.58-.62-.52,0-1.11-.05-1.35.05l-.09.04ZM1111.46,221.75c-.01.23-.06,1.51.11,1.65.18.12.7.11.94.06.4-.19.92-.33,1.36-.4.68-.34,1.62-1.09,2.17-1.6.37-.48.86-1.36.76-1.82-.27-.85-1.22-1.63-2.07-1.82-1.07-.27-1.54.67-2.02,1.66-.33.41-1.12,1.75-1.24,2.18l-.02.08Z"/>
        <path class="uuid-4b2cfc97-0aa8-470f-bd61-3353ecc0371a" d="M1031.73,214.43c-.49-.09-1.17-.61-1.65-.41-.78.46-1.24,1.42-2.04,1.88-.7.52-1.51.71-2.29.31-.35-.14-.34-.47-.34-.74-.3-.41-1.31.11-1.55.24-.92.32-2.81.14-3.9.13-.48-.1-.7-.23-1.3-.14-2.46-.06.31-3.69,1.67-2.71.22.2.2.58.24.86.08.69,1.08.94,1.68.89.51-.14,1.15-.28,1.8-.3.9-.29,2.04-.25,2.9-.53.38-.12.73.25,1.05.21.26-.02.52-.37.35-.61-.53-.55-1.58-.73-2.09-1.17-.44-.34-.93-.67-1.29-.95-1.29-1.51,1.31-3.71,2.74-3.84.86.07,1.78.61,2.28,1.24.56.68.78,1.6.55,2.45-.1.36-.21.84.13,1.08.62.32,1.32.72,2.03.9,1.11.21,2-.16,3.12-.11,1.43.04.32.72.55,1.42.12.29.5.62.82.82.68.41,1.82.05,2.47-.29.59-.34.71-1.02.97-1.59.77-1.38,2.23-3.54,3.87-4.09.85-.18,1.42.28.94,1.09-.22.47-.64.98-.53,1.1.03.04.1.06.21.05.66-.12,1.57-.21,2.27-.29.6,0,2.07.16,2.77.3.16.07.25.18.27.29.02.18-.13.37-.37.46-.62.17-1.47.04-2.22.04-1.03-.14-1.99.33-2.99.26-.44-.07-.76-.08-1.04.23-.32.39-.86.83-1.28,1.24-.14.17-.31.45-.14.64.61.55,1.54-.01,2.19-.19.51-.11.9-.45,1.36-.55.44,0,.65.63,1.02.81.36.21.78.25,1.18.36,1.03.28,2.59-.01,3.53-.51.36-.2.65-.62,1.07-.69.47-.06.95.73,1.46.65.83,0,2.29-1.09,2.79.03.15.4-.34,1.35.43,1.18.4-.1.92-.23,1.22.1.32.29.43.82.19,1.17-.51.74-1.54,0-2.3.42-.34.11-.71.39-1.06.36-.56-.11-.12-1.68-.68-1.86-.83-.26-1.4,1.15-2.2,1.21-.47.07-1.12.11-1.36-.37-.14-.25-.27-.56-.55-.62-1.74.13-3.73,1.16-5.35-.04-.26-.2-.54-.49-.87-.51-.53.04-1.2.42-1.78.51-.95.43-1.81-.31-2.76-.14-.72.15-1.28.75-2.02.88-.67.09-1.59.14-2.22-.06-.4-.15-.71-.52-1.13-.65-.52-.16-1.16,0-1.51-.4-.34-.31-.17-.98-.34-1.21-.13-.21-.52-.19-.87-.24l-.13-.03ZM1027.13,209.17c-.65.12-1.07.92-.43,1.43.51.38,1.2.71,1.75,1.01.53.28.83.33.92-.38.34-1.44-.73-2.4-2.12-2.09l-.12.02ZM1036.04,214.48c-.28,0-.74-.02-.92.25.28-.05.89.17.92-.25Z"/>
        <path class="uuid-4b2cfc97-0aa8-470f-bd61-3353ecc0371a" d="M1011.62,213.16c.47.09.95-.4,1.38-.57,1.09-.6,3.18-1.46,3.58.35.08.68-1.06,2.19.24,2.4.23.05.43.11.49.23.06.12-.03.29-.24.46-.73.61-1.88,1.04-2.38.02-.13-.28-.22-.64-.2-.94.02-.44.28-.89.09-1.23-.86-1.16-3.01.4-3.85,1.05-.62.55-1.16,1.18-1.24,1.89-.05.99-.27,2.11-.96,2.84-1.2.72-1.36-.87-1.19-1.7.07-.47.36-1.01.51-1.52.05-.22.09-.46.04-.68-.35-1.07-.3-2.37.05-3.4.47-1.43,1.45-2.91,3.13-2.99.64-.15,1.26.28,1.41.85.03.17-.08.34-.24.54-.48.59-.94,1.59-.69,2.34l.06.05ZM1010.94,210.45c-.53-.04-1.62,1.16-1.74,1.63-.02.28-.21.83-.12,1.14.07.19.18.35.18.55,0,.26.03.52.25.69.44.17.69-.34,1.01-.59.14-.13.47-.13.4-.25-.05-.09-.23-.01-.35-.01-.55-.32.17-.96.12-1.36,0-.15-.14-.29-.19-.41-.09-.46.53-.89.46-1.35l-.03-.03Z"/>
        <path class="uuid-4b2cfc97-0aa8-470f-bd61-3353ecc0371a" d="M1040.79,264.65c.3.71.9.5,1.6.62.76.26,1.7.18,2.42.13.37.05.76.04,1.16-.04.23-.02.53.01.66.22.49,1.01-1.41.89-1.97,1.08-1.37.29-2.47.43-3.98.42-.86.04-1.66-.19-2.38-.51-.29-.12-.6-.17-.93-.08-1.6.43-3.48.35-4.79-.63-.44-.31-.89-.73-1.43-.8-1.01-.19-2.32.93-3.33.7-.55-.13-1.06.08-1.55.31-.65.22-1.2.14-2.1.17-.97-.03-1.56.1-2.31-.29-.47-.19-.85-.82-1.37-.86-1.03.2-2.19.91-2.41-.7-.07-.14-.2-.22-.42-.24-2.37,0-4.69,1.23-7.09,1.1-1.87-.25-3.76.6-5.32,1.52-.62.38-1.35.8-1.47,1.59-.23,1.25-.29,2.65-.73,3.83-.87,1.08-1.42-.07-1.42-1.14-.07-.73.07-1.53.22-2.2.25-.85.84-1.53.8-2.5,0-2,.05-4.01.73-5.95.52-1.34,2.18-1.49,3.4-1.19,1.2.64.29,2.51-.77,2.77-.84.08.26-.96.15-1.3,0-.37-.42-.58-.75-.42-.66.33-1,1.18-1.05,1.86-.03.7-.1,1.38-.24,2.06-.06.48-.22,1.25.32,1.47.4.11,1.01-.19,1.57-.38,1.06-.33,1.96-.7,2.88-1.34,1.38-.86,3.78-3.78,5.61-2.27.32.41.06.98-.44,1.29-.68.37-1.46.76-.57.62,1.93-.71,3.57-.69,5.35-1.45.63-.17,1.4-.29,1.6.46.07.26.13.55.28.61.42.11.95-.22,1.35.08.28.16.48.39.77.66.94.74,2.34,1.08,3.43.46.95-.43,1.73-1.43,2.92-1.56.65-.05,1.08.51,1.7.59.84.24,1.37-.51,2.15-.1.88.42,1.19,1.87,2.24,1.9.56.08.97.22,1.49.23.91-.03,1.68-.34,2.47-.67.4-.19,1.16-.45,1.49-.19l.07.06Z"/>
        <path class="uuid-4b2cfc97-0aa8-470f-bd61-3353ecc0371a" d="M1010.51,265.5c.12-.04.78-.05.78.11-.27.47-1.32.06-.78-.11Z"/>
        <path class="uuid-4b2cfc97-0aa8-470f-bd61-3353ecc0371a" d="M974.95,255.1c.23.21.21.59.16.9-.32,1.25-1.03,2.66-1.6,3.81-.39.78-1.14,1.37-1.37,2.31-.09.32-.28.74-.21,1.05.03.1.1.13.23.13.46-.08,1.08-.15,1.53.17.57.39,1.22,1.09,2.01.89,1.07-.36,1.91-.56,2.93-1.2.2-.11.48-.27.69-.27,1.35.22-.35,2.35,1.52,2.09.84-.03,1.85-.37,2.56-.67.28-.06.49.02.61.35.19.4.27,1.06.78,1.14.7.08,3.12.05,3.88.11,1.23.21.26,2.25-.5,2.61-.56.18-.74-.71-1.24-.84-.33-.13-.8-.09-1.16-.17-.49-.08-.86.02-1.43-.02-.72-.12-1.4-.5-1.95-.93-.68-.47-1.14.03-2.11,0-.9.03-1.89.14-2.45-.42-.26-.21-.56-.47-.89-.52-.56-.05-1.07.22-1.57.09-.5-.08-1.02.17-1.52.11-.57-.07-1.13-.48-1.85-.53-.31-.03-.64-.06-.94-.14-1.26-.58-.78-2.5-.25-3.47.82-1.44,1.62-3.08,2.35-4.65.37-.7.64-2.31,1.69-2.01l.09.06Z"/>
        <path class="uuid-4b2cfc97-0aa8-470f-bd61-3353ecc0371a" d="M965.45,263.46c.14-1.11,1.27-1.92,1.61-2.85.02-.18.01-.35-.21-.41-.97-.19-2.17-.53-2.98-1.16-.7-.32-1.28-.54-1.46-1.41-.05-.4.26-.54.58-.8.36-.35.72-.63,1.25-.79.58-.16,1.07-.43,1.51-.75.27-.12.48.03.78-.15,1.1-.6,2.64-1.31,3.92-.76.3.13.41.26.4.62-.04.62.1,1.52-.09,2.1-1.24,2-2.37,4.13-3.6,6.11-.36.49.26.64.45,1.07.1,1-1.3,1.06-2.01.87-.35-.23-.16-1.19-.18-1.57l.02-.13ZM969.3,255.74c-.75-.1-1.63.17-2.35.49-.37.24-.74,1.03-1.32,1.3-.17.16-.22.34-.17.6.09.38.18.28.34.34.36.02.6.16.84.42.33.27,1.12.42,1.46.5.11.01.12-.27.21-.46.37-1.01,1.27-2.01,1.04-3.14l-.06-.05Z"/>
      </g>
      <g>
        <path class="uuid-4b2cfc97-0aa8-470f-bd61-3353ecc0371a" d="M185.91,117.75c.49.27,1.13.11,1.66.04,1.06-.09,3.81,2.01,3.12,3.55-.26.81-1.98.62-1.88,1.22.04.3.45.72.73,1.14.63,1.02,1.32,1.91,2.07,2.81.14.25.3.57.18.87-.15.39-.52.67-.54,1.06-.05.38.11.92.02,1.44-.26,1.06-.44,1.96-.02,3.02.31,1.07.91,1.72,1.9,2.16.61.33,1.42.66,1.44,1.55,0,.56-.08,1.16.14,1.72.55,1.1.32,2.46-.9,2.29-.66-.17-.96.61-1.5.82-.42-.11-.92-.83-1.03-1.34-.13-.55.6-.9,1.28-.77.63.12,1.17.09,1.04-.46-.13-.62-.82-1.1-1.17-1.69-.5-.9-.95-1.84-1.59-2.64-.69-1-1.33-2.12-1.48-3.4-.01-.79.2-1.57-.04-2.36-.39-1.12.33-1.85.21-2.8-1.31-2.3-3.69-4.17-4.36-7-.18-.38-.52-.73-.6-.97-.2-.43.87-.45,1.21-.3l.12.05Z"/>
        <path class="uuid-4b2cfc97-0aa8-470f-bd61-3353ecc0371a" d="M202.48,170.38c-.72-.17-.51-1.56-.58-2.3-.31-4.19-2.01-9.76-3.5-13.73-.22-.56-.54-1.16-1.08-1.27-.45-.11-.93.22-1.04.71-.25.99.72,1.96,1.15,2.9.43.92-.15,2.01.31,2.9.39.84,1.2,1.51,1.46,2.48.11,1.15.87,2.23.86,3.36-.07.45-.4.79-.61,1.16-.5,1.05.8,2.57.54,3.62-.67,1.34-1.36-2.32-1.71-2.81-.27-.64-.39-1.32-.1-1.84.16-.36.47-.74.39-1.17-.1-.64-1.09-1.28-1.38-1.87-.28-.54.09-1.22-.05-1.88-.09-.46-.34-.91-.46-1.39-.11-.41-.14-.85-.21-1.29-.12-1.38-1.29-2.8-1.35-4.31,0-.56.43-1.08.66-1.62.41-1.13-.6-2.02-.91-3.18-.4-.98-.82-3.5.66-2.98.45.25.96.82.71,1.38-.19.36-.66.56-.64.98.03.48.36.94.61,1.37.87,1.88,2.65,2.2,3.92,3.36.79.92-.36.93-.53,1.79,0,.09-.01.27-.02.37.28,2.38,1.71,4.54,2.19,6.81.34,2.57,1.12,5.21,1,7.77-.01.34-.08.56-.2.64l-.08.03Z"/>
        <path class="uuid-4b2cfc97-0aa8-470f-bd61-3353ecc0371a" d="M211.45,140.72c-1.36.54-2.96-.03-1.14,2.23.11.19.19.41.19.64-.05.36-.23.67-.48.87-1.51.67,1.29,2.05.45,3.23-.83.75-2.04.16-1.03,1.9.28.52,1.08,1,1.07,1.62-.02.25-.24.46-.5.66-.56.37-.72,1.03-.25,1.57.4.49,1,.84,1.32,1.41.44.77-.07,1.61-.85,1.16-.47-.19-.78-.23-.76.26.47,1.61,2.07,3.91,2.37,5.68.24,2.08-1.54,2.92-2.76,1.5-.56-.55-.45-1.25.16-1.37.51-.08,1.49.66,1.54-.36-.19-2.56-2.71-4.47-2.49-7.13.1-1.1-.22-2.18,0-3.24.28-1.19-.6-2.48-.3-3.68.18-.67,1.2-.95,1.06-1.59-.07-.99-2.48-1.59-1.51-2.62.3-.26,1-.4,1.04-.87.04-.66-.72-1.53-1.39-1.97-.62-.43-1.5-.66-1.92-1.11-.19-.2-.23-.37.06-.39.83.04,3.45.54,4.48.63.33.03.7-.19.36-.64-.25-.44-1.37-.65-1.11-1.26.94-.84,4.03,1.59,2.53,2.76l-.13.09Z"/>
        <path class="uuid-4b2cfc97-0aa8-470f-bd61-3353ecc0371a" d="M178.52,153.35c.46.33,1.56,1.05,1.88,1.68.07.64-.7.26-.96.08-.28-.2-.63-.48-.51.13.11.31.25.67.43.92.68.83.75,2.04,1.35,2.95.41.7,1.09,1.7.82,2.49-.59,1.22-1.32,2.69-2.49,3.3-.9.37-2.07,1.41-3.12,1.3-.7-.28-1.07-2.13-.96-3.12.03-.47.63-.79,1.06-.71.63.28,1.43.92,1.93,1.51.16.15.36.25.57.21.71-.28.9-1.49,1.05-2.29.14-.39.46-.59.61-.97.05-1.71-1.66-2.72-2.1-4.24-.4-.93-.42-2.47.35-3.26h.1ZM176.49,163.63c-.09-.06-.19-.01-.29-.03v1.21s1.02-.06,1.02-.06c.31-.2-.43-.53-.48-.58-.11-.12-.2-.51-.25-.54Z"/>
        <path class="uuid-4b2cfc97-0aa8-470f-bd61-3353ecc0371a" d="M170.44,127.66c.27.99-.07,2.36.34,3.23.22.57.11,1.11-.44,1.31-1.01.31-1.6.17-1.48-1.3,0-.51.21-.89.34-1.27.21-.63-.24-1.24-.65-1.59-.05-.07-.14-.2-.19-.26-.24-2.5-1.88-4.69-2.67-7.02-.75-3.07,3.74-1.75,3.79.24-.01.18-.09.36-.2.48-.44.43-.63-.27-1.04-.61-.22-.21-.5-.37-.74-.42-1.3-.19-.34,1.35.09,1.87,1.08,1.58,1.73,3.67,2.81,5.22l.06.13Z"/>
        <path class="uuid-4b2cfc97-0aa8-470f-bd61-3353ecc0371a" d="M218.95,168.35c.03.18-.09.47-.31.69-.58.56-1.88.19-1.52,1.35.91,3.42,2.13,7.89,3.03,11.29.11.39.14.93-.16,1.16-.62.28-.5-1.17-.74-1.66-.59-1.06-.57-2.07-.74-3.33-.73-2.65-1.33-6.09-2.79-8.04-.47-.49-1.2-.36-1.96-.54-1.36-.38-1.49,1.46-1.4,2.87.03.44.13.91.28,1.32.05.2.2.62.02.74-.07.06-.2.03-.34-.08-.81-.74-1.41-2.27-.91-3.48.27-.85.12-1.87.9-2.35,1.3-1.19,2.73.88,4.13.17.65-.27,1.77-.59,2.48-.2l.03.1Z"/>
        <path class="uuid-4b2cfc97-0aa8-470f-bd61-3353ecc0371a" d="M203.89,117.78c.58,0,2.08,0,2.62,0,.14-.02.18.01.26.21.02,1.15-1.18.34-1.72.28-.64-.06-.26,1.08-.28,1.85.06.61-.03.84.12,1.14.38,1.1,1.33,3.24,1.19,3.74-.09.1-.26.31-.34.42-.43.39-.67-.3-.89-.9-.3-.87-.78-2.4-1.03-3.29-.12-.39-.08-.43-.08-.75.05-.98-.14-2.46.13-2.66l.04-.03Z"/>
        <path class="uuid-4b2cfc97-0aa8-470f-bd61-3353ecc0371a" d="M211.75,303.7c-.12,1.1-.5,2.39-.77,3.58-.08.92-.06,1.86-.27,2.77-.19,1.41-.04,3.53-.31,5.09-.16.9-.43,1.94-1.28,2.02-.33.02-.62-.18-.69-.54-.17-1.01.26-2.23.37-3.26.02-.49-.16-.97-.17-1.42,0-.65.26-1.36.18-2.05-.01-.97.1-1.98.17-3.04.21-1.48-.65-.04-.98.42-2.4,3.34-3.13,3.46-.72,7.28.5,1.28-.79,1.77-1.53.88-.66-.47-1.29-1.94-2.08-1.05-.35.38-1.02.38-1.29-.17-.08-.21-.04-.47.06-.74,1.4-2.98,3.03-5.97,5.06-8.42.48-.52.98-1.07,1.57-1.36.63-.27,1.35.05,2.02-.13.29-.05.53-.09.63.04l.04.08Z"/>
        <path class="uuid-4b2cfc97-0aa8-470f-bd61-3353ecc0371a" d="M223.98,187.85c-2.01.51-4.17-.37-6.18-.44-.1.02.31.43.34.9.03.74-.41,1.51-.31,2.25-.11.86,2.96,4.51,1.62,4.71-.34-.03-.62-.63-.89-.57-.31.07-.48.6-.63.93-.25.59-.49,1.07-.36,1.51.3.91.24,2.04.83,2.87.22.46.4,1.87-.17,2.02-.37-.16-.49-1.03-.72-1.39-.88-1.69-1.52-4.67-.32-6.3.18-.2.39-.45.56-.66.62-.81-.42-1.48-.74-2.31-.35-.61-.4-1.45-.62-1.98-.51-.66-1.94-1.75-1.56-2.91,1.34-2.34,3.77.03,5.67-.07,1.16.29,2.29-.1,3.38.21.36.19.38.95.18,1.15l-.09.07Z"/>
        <path class="uuid-4b2cfc97-0aa8-470f-bd61-3353ecc0371a" d="M176.66,144.22c.41.43,1.38,1.92.24,2.27-.7.38-.03,1.01.31,1.48.37.59.72,1.47.85,2.14.02.31-.12.66-.15,1.06-.03.62.06,1.4-.34,1.71-1.03.49-.69-1.73-.76-2.4-.03-1-.37-2.05-.95-2.71-.5-.57-.63-1.49-.32-2.27.08-.33.15-.7-.04-1-.55-.97-1.84-1.27-2.47-2.11-.15-.59.62-.99,1.05-.77,3.4,1.6,3.15,1,1-1.96.15-.43.7.17,1.07.3,1.32.38,2.23,1.76,2.74,3.19,0,1.08-1.92.63-2.24.98v.09Z"/>
        <path class="uuid-4b2cfc97-0aa8-470f-bd61-3353ecc0371a" d="M190.28,180.94c.3-.25,1.42.32,1.43.66,0,.27-.51,1.17-.72,1.33-.18.14-.71.32-.71,0v-2Z"/>
        <path class="uuid-4b2cfc97-0aa8-470f-bd61-3353ecc0371a" d="M172.76,246.06c.52.49,1.33.84,1.96,1.34.66.62,1.55.64,2.14,1.23.29.35.21.92-.03,1.38-.19.41-.32.71-.08.98.17.17.39.33.59.46,1.19.64.33,2.66.52,3.8.08.48.57.86.67,1.45.11.58-.11,1.31.12,1.84.22.57.79.91,1.06,1.41.37.66.12,1.46.29,2.21.09.49.29.93.23,1.41-.16.56-.8.43-1.13.04-.48-.59-.45-1.5-.75-2.24-.92-1.8-1.38-3.7-2.03-5.65-.39-1.22-.69-2.38-1.23-3.5-.36-1.2-.63-2.38-.97-3.62-.24-.84-1.29-1.24-1.91-1.39-.99-.09.72,3.6.87,4.35.85,2.43,1.78,4.93,2.64,7.29.19.5.57,1.52-.07,1.7-.29.05-.66-.31-.86-.77-.54-1.3-.57-2.98-1.27-4.29-1.21-2.44-2.03-5.3-2.84-7.98-1.27-3.04-2.79-6.11-3.87-9.24-.33-4.27,2.54,5.67,3.38,5.69,1.51.69,3.24,1.34,4.88,1.01.58-.12,1.14-.02,1.54.4.62.58,1.05,2.39-.25,2.06-.85-.44-1.79-.81-2.7-1.05-.48-.19-.92-.45-.92-.37v.04Z"/>
        <path class="uuid-4b2cfc97-0aa8-470f-bd61-3353ecc0371a" d="M225.99,219.84c-.07.41.25,1.37.42,2.12.16.71.63,1.09,1.26,1.31.35.14.73.39.82.81.15.95-1.19.83-.95,1.82.59,3.06,1.08,6.34,1.36,9.48.07.92-.42,1.42-1.25,1.26-.94-.2-1.79.71-1.52,1.83.13.51.13,1.25-.48,1.02-1.26-.5-.97-2.53-.33-3.61.16-.35.28-.72.16-1.09-.61-1.19-2.55-2.68-1.77-4.39.5-.82,1.65.94,1.55,1.53,0,.36-.09.71.08,1.06.2.44.71.86,1.13,1.16.53.32,1.13.94,1.63.56.49-1.4-.29-3.17-.51-4.84-.41-1.6-.59-3.12-1.19-4.38-.25-.65-2.61-1.73-2.59-.6.17.66.1,1.38-.4,1.89-.42.47-.86,1.23-1.26,1.4-.65.13-.35-1.1-.16-1.53.29-.86.57-1.03.34-1.79-.19-.46-.81-.99-1.05-1.55-.21-.44-.03-.94-.11-1.37-.04-.26-.24-.47-.51-.66-.55-.35-.97-.9-.78-1.62.82-2.3,6.66-1.97,8.3-1,.39.2.6.78.12.99-.56.26-1.97-.43-2.27.1l-.04.1ZM225.51,222.35c.07-.36-.11-.9-.18-1.27-.07-.42-.04-.93-.17-1.32-.64-1.43-2.17.03-3.18-.15-.29.07-.62.12-.67.57-.04.34.3.3.51.39.17.07.34.16.51.27.87.58,1.87,1.25,2.85,1.3.07.06.2.16.27.22l.06-.02Z"/>
        <path class="uuid-4b2cfc97-0aa8-470f-bd61-3353ecc0371a" d="M205.69,193.23c.13.63.66,1.64.65,2.56,0,.28.02.62.04.89.3,1.65.84,3.31.36,5.02-.17.3-.44-.67-.84-.86-.21-.11-.43.05-.52.34-.15.46.07,1.03.26,1.47.57,1.21,1,2.53.78,3.77-.12.59-.07,1.11-.08,1.74-.35,2.04-1.23.32-1.15-.93.31-2.39-.98-4.5-1.05-6.77.04-.6.79-1.15.71-1.79-.48-.91-1.12-1.91-1.46-2.97-.63-1.53.09-3.54-.74-5-.44-.8-.14-1.37.55-1.78.25-.18.38-.37.38-.66-.08-1.14-.36-2.14-1.51-1.74-.43.13-.42.64-.54,1.03-.33.42-.83-.24-1.2-.6-1.5-1.7,1.51-1.17,2.39-2.02.2-.27.31-.64.46-.95.06-.09.14-.08.24,0,.34.39.83,1.31,1.39,1.42.51.18,1.14-.17,1.52.14.4.31.48,1.14.11,1.25-.36.18-1.15,0-1.61.17-.84.48.09,2.19.78,2.31.57.19,1.25.15,1.74.42.66.3.87,1.53.19,1.58-1.44-.02-2.14-.42-1.9,1.78l.03.18Z"/>
        <path class="uuid-4b2cfc97-0aa8-470f-bd61-3353ecc0371a" d="M216.45,227c.61-.27,1.34.39.78,1.07-.41.48-1.27.47-1.94.41-.82.02-1.86-.64-2.21.3-.15,1.05-1.4,1.73-.85,2.9.49,1.11,1.49,2.12,1.45,3.41-.12,1.18.98,1.95.72,3.09-.12.43-.43.75-.44,1.15-.03.36.17.81.24,1.25.11.85.2,1.47.76,2.05.4.48.79,1,1.3,1.32.93.5,2.64.76,2.97,2.03-.26,1.14-1.61-.11-2.27,0-1.16-.07-2.78,3-1.39,3.93.78.58,2.16.49,2.33-.43.1-.33.05-.93.3-1.15.36-.21.88.89.65,1.72-.48,2.36-3.13,1.87-4.24.47-.82-1.11-.62-2.91.13-4.03.33-.52.69-1.12.57-1.81-.13-1.11-1.29-1.47-1.71-2.31-.29-.55-.31-1.3-.48-1.94-.19-.85-.87-1.67-.64-2.46.06-.23.12-.5.16-.73,0-.93-1.04-1.68-1.69-2.06-.21-.14-.65-.4-.32-.71.29-.3,1.02-.46,1.23-.78.15-.2.1-.46-.06-.75-.71-1.03-1.5-2.04-.71-3.36.26-.52.4-.94.19-1.32-1.6-2.28-.07-2.44,1.7-1.91,1.07.25,2.31,1.12,3.27.7l.15-.04Z"/>
        <path class="uuid-4b2cfc97-0aa8-470f-bd61-3353ecc0371a" d="M157.71,160.72c-.49-.35-1.57.32-1.71-.53-.04-.64.8-1.21,1.54-1.28.41-.06.82-.04,1.03-.25.54-.8-.27-2.12-.11-3.07.03-.47.2-.84.42-.78.37.12.59,1.18.77,1.84.25.9.17,2.01,1,2.4.53.27,1.21.46,1.16.95-.05.46-.46,1.06-.15,1.6.19.48.77.71,1.08.95.44.39-.1.99-.03,1.53.14,1.29-.63,1.24-1.15.22-.17-.32-1.09-1.55-.9-.66.12.73-.89,1.03-.98,1.6-.23,1.22,2.15,1.74,1.68,3.05-.56,1.25-.1,2.28.59,3.29.59.89,1.37,2.98.17,3.59-1.02.51-1.77-.34-1.71-1.61,0-.74.99-.03.95-.51-.02-.35-.3-.75-.49-1.07-1.18-1.56-1.11-3.72-1.9-5.41-.24-.51-.58-1-.72-1.56-.14-.59.03-1.23-.14-1.73-.3-.69-.27-1.55.54-1.86,1.76-.61-.28-.46-.8-.66l-.14-.05Z"/>
        <path class="uuid-4b2cfc97-0aa8-470f-bd61-3353ecc0371a" d="M204.19,242.16c-.37.26-1.48.07-.92,1.01.6.94-.56,1.7-.26,2.63.4,1.32,1.5,2.39,1.77,3.76.07.62.06,1.18.39,1.52.27.31.68.61.88,1.1.66,1.6-.95,1.25-1.35,2.12-.14.44.17,1.83.17,2.74.25,1.28,1.22-.58,1.63-.62.87.02.1,2.05-.52,2.23-2.18,1.09-2.66-1.17-2.52-3.27-.09-1-.37-1.86.29-2.63,1.25-1.66-3.13-2.65-1.22-4.06.65-.42.05-1.12-.23-1.6-.65-.91-1.21-2.06-.95-3.28.14-.75.1-1.35-.44-1.76-.51-.4-1.34-1.11-.92-1.91.49-.71,1.41.66,2.03.6.25,0,.57.07.76-.17-.22-.81-2-1.57-2.32-2.34-.13-.47.35-.7.73-.64.39.06.76.41,1.15.73.96.8,2.36,2.3,1.93,3.73l-.09.09Z"/>
        <path class="uuid-4b2cfc97-0aa8-470f-bd61-3353ecc0371a" d="M149.78,172.79c.51,1.04,1.52,1.95,2.26,2.84.33.39.39.92.37,1.45.02.66.74.5.98,1.24.31.76-.27,1.31-.58,1.87-.12.33.26.83.44,1.04.24.29.54.56.77.85.37.42.24,1.13.41,1.69.15.49.62.84.77,1.38.17.52.02,1.15.13,1.68.24,1,1.07,1.87,1.16,2.99-.03,1.18-1.65.78-2.01.06-.37-.61,0-1.32-.11-1.98-.36-1.07-.48-1.93-.78-2.89-.69-1.04-1.25-2.33-1.82-3.45-.38-.58-.49-1.19-.47-1.96.15-1.4-1.29-2.43-.99-3.59.07-.2.16-.44.22-.64.08-.75-.72-1.1-1.09-1.84-.65-.81-.52-1.76-.91-2.64-.19-.34-.52-.58-.82-.88-.48-.46-.73-1.22-1.23-1.62-.23-.19-.53-.31-.7-.5-.31-.3-.15-.87.26-.89.4-.02.92.42,1.44.41.46.02.88-.19,1.23-.1.55.18,1.15.68,1.74.84.65.17,1.48,1.5.83,2.17-.27.22-1,.27-.97-.22-.03-.11.39-.65.19-.94-.22-.43-3.05-1.3-2.37,0,.67,1.26,1.88,1.81,2.9,2.59.48.39.78,1.73-.15,1.46-.26-.12-.57-.27-.81-.43-.17-.1-.28-.14-.28-.08v.07Z"/>
        <path class="uuid-4b2cfc97-0aa8-470f-bd61-3353ecc0371a" d="M191.57,200.82c.03.73.66,1.62.18,2.31-1.22,1.34-.21,2.43.38,3.87.56,1.18.86,2.25.84,3.63.53,3.79-5.6,1.18-6.78-.02-.78-.58-1.36-1.44-1.75-2.36-.22-.36-.51-.68-.65-1.18-.16-.55-.25-1.44.02-1.93.18-.31.39-.1.5.4.11.51.22,1.08.44,1.55,1.03,2.24,3.23,3.28,5.24,3.97,2.64,1.02,1.91-1.51,1.44-3.43-.32-.88-.89-1.69-1.14-2.61-.38-1.16.03-2.65-.29-3.81-.12-.47-.3-.96-.28-1.47,0-.77.64-1.24.61-1.86-.36-1.68-2.26-2.69-1.76-4.68.2-1.37,2.65-1.78,1.99-.09-.28.46-.78.76-.74,1.21.41,1.79,2.05,3.52,2.49,5.22.04.49-.54.73-.71,1.14l-.03.14Z"/>
        <path class="uuid-4b2cfc97-0aa8-470f-bd61-3353ecc0371a" d="M181.63,226.84c-.58,1.33-1.41,4.27-.1,5.31.55.5,1.29,1.09,1.69,1.74.45.62-.66,1.09-.44,1.62.15.39.7.87,1.07,1.29.75.64.54,1.5.83,2.35.3.84,1.58,1.52.74,2.43-.88,1.24-2.3.79-3.46.43-1.15-.54-3.4-.36-3.44-2.25.04-.64.79-1.16,1.31-.99.5.17.83.93,1.37,1.34.6.49,1.18,1.55,1.93,1.01.32-.25.43-.85.34-1.38-.12-1.24-1.47-1.81-1.71-2.88,0-.24-.02-.52-.02-.76-.03-.96-1.02-1.4-1.29-2.2-.22-1.14-.68-2.27-.71-3.47.03-.54-.02-1.09-.19-1.57-.08-.24-.14-.53-.16-.79,0-.61.55-1.27.27-1.54-.25-.27-.94-.47-1.37-.91-.76-.61-.31-1.45.37-1.65,1.09-.39,3.68,1.1,3.05,2.73l-.07.14ZM180.38,225.42c.2-.23-1.07-1.29-1.43-.97-.05.4,1.37,1.04,1.43.97ZM180.16,239.63c-.23-.3-1.4.02-1.06.71.15.25.85.03,1.11.11.14.04.11.45.38.37l-.43-1.18Z"/>
        <path class="uuid-4b2cfc97-0aa8-470f-bd61-3353ecc0371a" d="M149.55,203.23c.1.2-.11.83-.5,1.05-.32.19-.48.37-.32.73,1.06,1.71,3.35,1.42,4.65,2.78.47.53-.32,1.03-.29,1.53.08.52.86,1.01.91,1.65.25,1.79.34,3.66.54,5.47-.04.57-.21.66-.68.19-.8-.8-.95.28-.67,1.05.41,1.11-.76,1.16-1.14.66-.17-.28-.12-.83-.3-1.17-.26-.5-.89-.42-.83-1.03-.03-.65.06-.93.52-1.16.18-.59-.96-.77-1.19-1.25-.28-.42-.15-1.03-.34-1.57-.25-.79-.9-1.57-.6-2.46.23-.61.05-1.1-.28-1.62-.31-1.17-1.1-2-1.49-3.12-.11-.46-.09-1.06.04-1.46.08-.59,1.73-.41,1.93-.33l.05.07ZM152.86,213.65c-.19-.8.28-1.87-.04-2.62-.15-.38-.44-.89-.56-1.32-.12-.33.04-.79-.08-1.02-.19-.28-.89-.29-1.2-.54-.27-.15-.76-.61-.97-.64.26.63,1.51,1.45,1.33,2.34-.26.22-1.02.16-1.24.47-.07.45.44.93.69,1.26.3.3.49.79.63,1.17.09.16.3.03.44.01.14-.03.2.07.31.27.17.37.53.8.66.7l.03-.08Z"/>
        <path class="uuid-4b2cfc97-0aa8-470f-bd61-3353ecc0371a" d="M229.95,255.7c.71.58,2.69,2.11,1.98,3.54-.21.44-.71.75-.95,1.13-.25.38-.3.87-.51,1.28-.2.41-.6.72-.77,1.15-.51,1.42.4,2.71,1.44,3.43.36.34.64.86.29,1.29-.17.22-.4.4-.48.63-.22,1.62.56,3.02,1.46,4.58.74,1.23.58,1.87-.53.68-.6-.77-.93-1.7-1.3-2.66-.56-1.3-.31-2.72-.85-3.99-.93-1.46-1.68-3.53-.97-5.31.37-.82,0-1.31-.5-1.96-1.22-1.85,2.11-.41,2.32-1.23.06-.34-.07-.59-.34-.83-1.4-.75-3.1-1.16-4.54-1.85-.43-.22-.72-.68-.69-1.25.21-2.21,3.23-1.54,4.15-.38.24.2.48.37.59.6.16.3.02.71.13,1.02l.06.11ZM228.03,255.11c-.01-.97-1.19-.53-1.73-.48.11.3,1.67.56,1.73.48Z"/>
        <path class="uuid-4b2cfc97-0aa8-470f-bd61-3353ecc0371a" d="M173.58,201.93c-.32-.15-1.08-.52-1.29,0-.3,1.2-.57,3.43.79,3.85.44.19,1.01.16,1.34.58.44.89.54,1.52,1.15,2.67.23.51.63,1.43.57,1.81,0,.3-.33.26-.64.27-.76.09.14,1.3.4,1.54.8.49,2.51,1.82,1.8,2.94-.17.21-.69-.44-.73-.13.02.52,1.02,2.14.17,2.45-1.35-.53-1.48-3-1.91-4.32-.3-.86-1.3-1.77-1.39-2.59-.11-.69.04-1.52-.22-2.15-.21-.44-.81-.66-1.1-1.33-.28-.58-.43-1.22-.71-1.71-.36-.63-.94-1.2-.97-1.94-.1-.65.2-1.34.14-1.97-.04-.42-.35-.75-.57-1.1-.59-.9.19-1.43.89-1.1,1.1.55,2.16.64,3.18,1.32,2.43.98.21,1.09-.78.93l-.12-.04Z"/>
        <path class="uuid-4b2cfc97-0aa8-470f-bd61-3353ecc0371a" d="M148.32,190.11c0,.21-.33.57-.35,1.01.07,1.14.69,2.56,1.1,3.57.33.64.87.38,1.42.38.46.06.37.46.04.8-.76.93-.99,2.18-1.68.52-.64-.88-1.08-1.93-1.51-2.97-.33-1.15-.58-2.8-1.63-3.33-1.23-.4-1.11.6-.24,1.53.53.64.87,1.31.38,1.85-.07.12-.12.24-.08.39.3.92,2.09,1.82,1.44,2.98-.79.97.81,1.89.64,3.14-.07.55-.62,1.46-.95.57-.21-.62-.28-1.47-.67-1.94-.34-.49-.97-.76-1.11-1.37-.13-.58.29-1.32,0-1.95-.22-.57-.68-1.05-.78-1.57-.12-.45-.03-.96-.1-1.48-.08-.87-.96-1.09-1.2-1.85-.2-.57-.1-1.21.29-1.6,1.46-1.33,3.76.03,4.97,1.2l.03.1Z"/>
        <path class="uuid-4b2cfc97-0aa8-470f-bd61-3353ecc0371a" d="M145.79,150.66c-.23-.01-.72-.63-1.06-1.09-.36-.51-.7-.72-.54-.22.53,1.79,1.81,3.22,2.99,4.42.8.96-.29,1.89-.2,2.96-.07.78-.35,1.56-.43,2.33,0,.69.43,1.43.94,1.82.5.34.79,1.03.37,1.45-.16.19-.44.38-.47.65-.05.32.22.76.3,1.15.21.85-.68.56-.96.2-.57-.89-.64-2.1-.87-3.17-.3-.86-.96-1.7-.7-2.71.19-.77.51-1.28.08-2.04-.17-.36-.4-.67-.65-.86-.31-.29-.9-.38-.8-.91.09-.48,1.17-.78,1.36-1,.5-.7-.71-1.42-1.06-1.92-.63-.67-.82-1.37-1.03-2.33-.21-.95-.37-1.92.76-1.67,1.32.1,2.59,1.55,2.05,2.92l-.08.03Z"/>
        <path class="uuid-4b2cfc97-0aa8-470f-bd61-3353ecc0371a" d="M187.32,247.54c-1.32,1,.87,1.43,1.53,1.61.48.09,1.18.78.36.85-.5.1-1.54-.53-1.89,0-.01.38.81.74,1.38,1.03.69.46,1.83.37,2.02,1.41-.06,1.28-1.57-.17-2.02.3,0,1.2,1.7,1.76,2.48,1.94.33.11.66.33.82.72.13.42,0,1.19-.37,1.37-.25.11-.67-.22-1.06-.35-.25-.08-.43-.05-.45.12-.06.29.41.89.75,1.36.46.6.4,1.15-.18.91-.49-.24-.94-.84-1.23-1.39-.99-2.08-1.83-5.59-3.92-6.43-.27-.12-.63-.43-.62-.77.05-.75,1.48.11,1.06-1.13-.46-.86-.31-2.52.77-2.34.23.08.72.35.64.68l-.06.08Z"/>
        <path class="uuid-4b2cfc97-0aa8-470f-bd61-3353ecc0371a" d="M153.57,144.27c.45-.51,1.27-.2,1.88,0,.58.14,1.18.67,1.45,1.44.71,1.83-1.06,2.06-2.11,2.21-.47.47.31,1.14.24,1.86.13.8-.46,1.45-.38,1.93.32.17,1.29-.03,1.44.41.13.43-.8,1.24-1.21,1.35-.55.12-1.66-.79-1.88-1.43-.09-.33-.1-.86-.03-1.24.06-.39.31-.53.56-.76.28-.34.34-.88.17-1.28-.17-.49-.61-.97-.77-1.46-.1-.54-.75-.91-1.12-1-.29-.3-.1-1-.11-1.54.08-.8,1.38-.1,1.8-.4l.07-.07ZM155.69,146.39c.12-.98-.85-1.24-1.43-.79.39.42.87.86,1.43.79Z"/>
        <path class="uuid-4b2cfc97-0aa8-470f-bd61-3353ecc0371a" d="M222.23,261.13c-.5.39-2.78-.53-3.36-.25-.16.36.28.6.37,1.01.34.99-.17,2.07.25,3.08.29.98,1.05,1.77,1.18,2.8-.18.92-.83,2.36.27,2.9.07.07.2.21.27.28.27.49-.09,1.11-.56,1-.87-.24-1.29-1.4-1.34-2.4-.1-1.05.11-2.18-.27-3.13-.75-1.04-.84-2.65-1.12-3.92-.2-.05-.56.27-.73-.22-.15-.61-.56-1.4-.57-2.01.04-.42.63-.45.98-.67.85-.51,2.11-.45,2.95.03.53.32,2.02.45,1.75,1.42l-.07.08Z"/>
        <path class="uuid-4b2cfc97-0aa8-470f-bd61-3353ecc0371a" d="M192.63,261.28c.12.46.77.74,1.12.94.97.57,1.2,1.94-.13,2.14-.47.4.55.97.89,1.45.38.37.59.88,1.01,1.26.39.32.41.92.13,1.34-.36.45-.43.71-.06,1.15.67,1-.66,1.21-1.16.73-.83-1.02-.38-2.87-1.3-3.86-.45-.49-.93-1-.98-1.82-.08-.69-.01-1.46-.24-2.08-.3-.82-1.17-1.12-1.03-2.24.18-1.34,1.75-1.04,2.53-.24.62.88-.16,1.22-.75,1.18l-.02.06Z"/>
        <path class="uuid-4b2cfc97-0aa8-470f-bd61-3353ecc0371a" d="M197.25,224.42c-1.17,1.63.42,3.42.75,5.08.13.52.22,1.07.33,1.58.3.97.68,1.84-.63,1.56-.3-.09-.58-.54-.78-.87-.2-.58.41-1.41.16-2.16-.17-1.07-.81-1.89-1.13-2.9-.3-.72-.08-1.56-.24-2.3-.11-.44-.52-.75-.68-1.06-.19-.45-.45-1.48-.27-2.1.24-.32,1.76-.29,2.23-.07.33.18.7,1.08.8,1.46.07.3-.15.53-.4.75-.35.27.02.61-.08.95l-.06.08Z"/>
        <path class="uuid-4b2cfc97-0aa8-470f-bd61-3353ecc0371a" d="M161.21,209.94c-.1-.2-.19-.76-.42-1.07-.25-.34-.22-.87-.03-1.3.11-.24.21-.54.27-.8.05-.31-.18-.58-.33-.89-.15-.31-.12-.66-.12-1.01.06-.89-.48-1.09-.97-1.76-1.3-1.49-.27-1.79,1.01-1.65.62.06,1.01.63,1.44,1.07.67.75-.01,1.68-.16,2.52-.05.53.03,1.03.19,1.43.39,1.14,1.72,2.03,1.52,3.38-.08.29-.54.12-1.22.17-.57-.01-1.04.03-1.13-.02l-.06-.07Z"/>
        <path class="uuid-4b2cfc97-0aa8-470f-bd61-3353ecc0371a" d="M173.15,258.54c-.75.34-1.33-.74-1.39-1.6-.79-6.66-5.33-12.11-6.59-18.65-.08-.4-.07-.74.17-.29.65,1.59,1.44,3.17,2.06,4.79,1.76,4.71,4.01,8.73,5.5,13.55.14.64.57,1.57.33,2.12l-.09.07Z"/>
        <path class="uuid-4b2cfc97-0aa8-470f-bd61-3353ecc0371a" d="M152.35,128.18c.28,1.11,1.04,2.11,1.23,3.34.34,1.74.38,3.61-1.53,3.64-1.52.15-3.32-.79-4.48-1.68-.56-.44-.24-1.14-.16-1.79,0-.56.16-1.13.53-1.48.41-.52.7.9.64,1.26-.1.47-.41.88-.16,1.24.21.36.68.61,1.17.79.77.24,1.79.72,2.48.2.85-.59.47-2.85-.12-3.43-.31-.19-.75.11-1.09.07-.77-.35.34-1.06.61-1.56.27-.48.62-.88.81-.69l.07.09Z"/>
        <path class="uuid-4b2cfc97-0aa8-470f-bd61-3353ecc0371a" d="M173.3,236.77c.26.82,2.31,1.06,1.5,2.24-.54.23-1.34-.11-1.94-.02-.28,0-.51.01-.5.2.09.45.34,1.22.64,1.53.82.48,1.95,0,2.67,1.06.48.7-.08,2.57-.95,1.84-.76-.68-2.27-1.98-1.55,0,.1.36-.06.67-.33.48-.66-.47-.4-1.54-.54-2.32-.09-.79-.39-1.19-.78-1.67-.29-.4-.34-.97-.48-1.21-.11-.23-.48-.34-.72-.61-.21-.38-.06-.91.28-1.01.48-.07,1.33.63,1.78.46.19-.12.38-.5.54-.77.17-.27.27-.38.33-.3l.05.09Z"/>
        <path class="uuid-4b2cfc97-0aa8-470f-bd61-3353ecc0371a" d="M172.86,227.24c.35-.68.75-1.12.88-.2.05,4.37-5.7,1.44-8.51.07-2.03-1.08-4.24-1.88-6.05-3.43-.18-.27-.05-.78.26-.75.33.07.67.64,1.05.84.49.29,1.04.47,1.54.73,2.41,1.25,5.76,3.44,8.34,3.46.93.38,1.68.28,2.4-.56l.09-.14Z"/>
        <path class="uuid-4b2cfc97-0aa8-470f-bd61-3353ecc0371a" d="M168.7,190.03c.34.43,1.03.35,1.46.52.61.5,1.46.73,2.26.66.6-.06.66.52.27.96-.29.34-.89.18-.95.68-.23,1.29.98,3.19.4,4.33-.36.11-.55-.78-.73-1.1-.8-1.32-.63-2.83-1.2-4.2-.28-.42-.98-.4-1.29-.11-.34.56.4,2.78-1.01,1.96-.49-.57-.53-2.02-.92-2.72-.12-.22-.2-.5-.22-.76.03-.23.26-.27.54-.26.39-.01.95-.1,1.29-.02l.09.05Z"/>
        <path class="uuid-4b2cfc97-0aa8-470f-bd61-3353ecc0371a" d="M185.19,177.08c.42,1.16,1.85,2.56,2.03,3.75-.05.88.35,2.4-.82,1.59-.7-.48-.65-1.33-.75-2.18-.07-.39-.28-.68-.41-.98-.14-.3-.14-.77-.31-1.01-.17-.25-.48-.29-.72-.51-.39-.33-.69-1.06-.64-1.61.01-.41.42-.71.74-.83.25-.11.49.11.82.07.32-.05.6-.31.89-.21.72.23,1.44.74,2.14.98.62.27,1.53.64,1.75,1.42-.13,1.04-1.28-.07-1.66-.2-.93-.39-2.11-.6-3.08-.37v.09Z"/>
        <path class="uuid-4b2cfc97-0aa8-470f-bd61-3353ecc0371a" d="M199.21,282.64c-2.67.52-1.14-1.22-2.15-2.89-.13-.24-.43-.61-.46-.84-.04-.4.64-1.07.37-1.86-.15-.35-.52-.28-.7-.58-.34-.43-.74-1.39-.2-1.84.57-.39,1.26.69,1.85.69.24.01.5.05.69.24.09.25-.2.55-.31.88-.23.81.59.69.92,1.3.21.4.46,1.27,0,1.53-.58.25-1.3.3-.72,1.29.07.19.09.39.13.59.04.52.58.86.63,1.43l-.06.08Z"/>
        <path class="uuid-4b2cfc97-0aa8-470f-bd61-3353ecc0371a" d="M145.35,186.16c-.28-.03-.85.1-1.15-.11-.18-.13-.35-.29-.53-.21-.23.1-.49.32-.76.38-.49,0-1.2-.39-1.38-.94-.1-.46.31-.81.58-1.12,1.39-1.27.07-2.58-.35-3.86.08-.28.16-.86.25-.96.85-.51,2.27,1.4,2.34,1.98.04.19-.16.33-.3.57-.24.6-.09,1.98-.09,2.48.04.61,1.56.85,1.44,1.72l-.06.07Z"/>
        <path class="uuid-4b2cfc97-0aa8-470f-bd61-3353ecc0371a" d="M168.13,223.97c-.29,0-1.13,0-1.44,0-.18,0-.24,0-.33-.12-.3-.51-1.08-1.79-.56-2.42.26-.46-.18-1.33-.38-1.7-.23-.4-.64-.4-.65-.93-.03-.51-.05-1.45.13-1.54.43-.07,1.73-.36,2.06.38.09.23.04.64-.18.83-.22.24-.78.25-.75.66.64,1.18,2.14,3.38,2.12,4.79l-.02.05Z"/>
        <path class="uuid-4b2cfc97-0aa8-470f-bd61-3353ecc0371a" d="M151.21,137.26c.16.26.18.79-.2.86-.5.13-.79-.47-1.18-.67-.04.05-.11.16-.15.22.03.32.1.45.3.58.59.44,1.86,1.6,2.15.29.34-.7.32.27.62.58.95,1.04.34,1.05-.66,1.13-1.23-.07-2.89-.73-3.82-1.48-.59-.74-.2-2.24.5-2.81.2-.17.4,0,.65.11.52.23,1.48.74,1.74,1.1l.06.1Z"/>
        <path class="uuid-4b2cfc97-0aa8-470f-bd61-3353ecc0371a" d="M142.07,142.75c-.16-.02-.65-.01-.83.17-.17.12-.12.49.14.54.31.05.67-.04.91.12.18.11.37.32.6.3.24,0,.29-.35.4-.57.12-.16.27-.19.34-.16l1.24.73c.57.36,1.42.77,1.82,1.1.41.6-.38.6-.77.59-1,.08-2.11-.71-3.02-.34-.34-.25-.97-.31-1.41-.41-.51-.25-1.14-.87-1.54-1.31-.47-1.43,1.71-2.08,2.15-.82l-.03.06Z"/>
        <path class="uuid-4b2cfc97-0aa8-470f-bd61-3353ecc0371a" d="M162.13,196.22c-.04.74-.71-.31-.93-.37-.21-.14-.63-.38-1-.59-.59-.51-1.29-.28-2-.57-.24-.13-.56-.25-.88-.17-.25.06-.4.22-.61.28-.34.1-.71.02-1.02.37-.27.29-.6.62-.69.96-.3.82.83,2.06.05,2.59-.54-.17-.77-1.56-.91-2.1-.32-1.52-.16-2.36,1.07-2.84.65-.18,1.29-.65,1.97-.42.75.25,1.7.49,2.4.94.84.55,1.68,1.37,2.5,1.81l.05.11Z"/>
        <path class="uuid-4b2cfc97-0aa8-470f-bd61-3353ecc0371a" d="M212.37,223.84c-.28,0-.76.29-1.04.45-.91.53-1.93-.51-2.62-1.13-.72-.66-.33-2.6.49-2.72.42,0,.6.14.98.39.48.32,1.28.9,1.61,1.17.31.1.69,1.58.63,1.8l-.06.04ZM211.2,223.11c.2-.21-.81-.84-.91-.92-.15-.12-.81-.95-1.02-.53-.45.91,1.46,1.38,1.93,1.44Z"/>
        <path class="uuid-4b2cfc97-0aa8-470f-bd61-3353ecc0371a" d="M156.79,242.45c1.7,4.51,3.63,9.09,5.45,13.55.17.47-.28.6-.48.22-.2-.4-.26-.9-.49-1.26-.77-1.19-1.3-2.02-1.52-3.52-.44-.53-.72-.86-.87-1.62-.66-1.86-1.99-4.71-2.3-6.95-.02-.31.06-.53.14-.48l.06.07Z"/>
        <path class="uuid-4b2cfc97-0aa8-470f-bd61-3353ecc0371a" d="M189.3,185.79c.42-.09.43.59.32.92-.15.36-.42.54-.34,1.01.05.41.29.84.58,1.26.38.61,1.74,2.13.63,2.49-.8-.13-1.32-1.84-1.94-2.53-.42-.57-1.74-2.22-.7-2.73.37-.13,1.05-.34,1.37-.42h.09Z"/>
        <path class="uuid-4b2cfc97-0aa8-470f-bd61-3353ecc0371a" d="M166.32,182.47c.21.54-.68,1.08-.69,1.42.19.45,1.38,1.64,1.05,1.88-1.08-.09-1.28-1.85-2.26-2.34-.48-.42-1.77-1.02-1.77-1.61.07-.61.77-1.43,1.29-.75.36.37.73.99,1,1.2.22.23,1.14-.16,1.33.09l.05.1Z"/>
        <path class="uuid-4b2cfc97-0aa8-470f-bd61-3353ecc0371a" d="M148.41,219.6c-.12-.01-.34-.23-.41-.46-.28-.66-.6-1.55-.87-2.33-.28-.86-1.39-3.7-.13-2.86.61,1.03.41,2.69.88,3.85.19.53.48,1.21.57,1.74l-.04.05Z"/>
        <path class="uuid-4b2cfc97-0aa8-470f-bd61-3353ecc0371a" d="M153.61,234.79c-.55-.28-.57-1.06-1.11-2.32-.32-.89-.63-1.8-.72-2.13-.07-.34-.16-1.24-.02-1.49.08-.07.31.16.4.31.44.76.27,1.95.54,2.7.17,1.01.83,2.04.97,2.9l-.05.03Z"/>
        <path class="uuid-4b2cfc97-0aa8-470f-bd61-3353ecc0371a" d="M170.28,217.66c-.22.55-.76,1.85-1.28,1.93-1.07.17-.35-1.44-.04-2l1.33.06Z"/>
        <path class="uuid-4b2cfc97-0aa8-470f-bd61-3353ecc0371a" d="M163.55,170.15c-.1-.44.38-.56.41-.91s-.4-.91-.41-1.32c1.74-1.22,1.65,2.79,0,2.23Z"/>
        <path class="uuid-4b2cfc97-0aa8-470f-bd61-3353ecc0371a" d="M156.51,241.78c-.24-.08-.29-.46-.45-.61s-.53-.18-.62-.36c-.1-.2-.03-.59-.09-.86-.13-.53-.48-.85-.36-1.45.19-.24,1,.88,1.07,1.09.12.37,0,.75.08,1.12.06.32.42.66.39,1.05Z"/>
        <path class="uuid-4b2cfc97-0aa8-470f-bd61-3353ecc0371a" d="M198.01,269.38c-.77.82-1.17-1.44-.69-1.73l.87.05c.15.26.03,1.44-.19,1.67Z"/>
        <path class="uuid-4b2cfc97-0aa8-470f-bd61-3353ecc0371a" d="M194.03,194.41c.62-.11.4,2.13-.22,2.05-.74-.09-.61-1.9.22-2.05Z"/>
        <path class="uuid-4b2cfc97-0aa8-470f-bd61-3353ecc0371a" d="M187.09,239.45c-.49.71-1.9-1.42-.44-1.43.86,0,.58.68.44,1.43Z"/>
        <path class="uuid-4b2cfc97-0aa8-470f-bd61-3353ecc0371a" d="M169.39,234.11c-.56-.58.43-2.13,1-1.01.46.9-.63,1.4-1,1.01Z"/>
        <path class="uuid-4b2cfc97-0aa8-470f-bd61-3353ecc0371a" d="M142.22,201.06c-1.04-.29-.55-1.25-.73-1.97-.07-.27-.48-.4-.39-.81.25-.06.26.03.39.2.54.67.86,1.66.73,2.59Z"/>
        <path class="uuid-4b2cfc97-0aa8-470f-bd61-3353ecc0371a" d="M153.34,223.6v-1.09s1.18.11,1.18.11c.27,1.14-.47,1.01-1.18.98Z"/>
        <path class="uuid-4b2cfc97-0aa8-470f-bd61-3353ecc0371a" d="M154.47,237.54c-.2.27-.62-1.1-.64-1.23-.07-.37-.09-.69-.07-1.07.17.03.18.24.23.39.18.57.31,1.31.48,1.91Z"/>
        <path class="uuid-4b2cfc97-0aa8-470f-bd61-3353ecc0371a" d="M148.75,220.08l.41,1.94c-.39.03-.25-.46-.36-.72-.16-.38-.5-.58-.35-1.22h.3Z"/>
        <path class="uuid-4b2cfc97-0aa8-470f-bd61-3353ecc0371a" d="M150.39,225.17c-.13.18-.64-.7-.69-.81-.1-.21-.18-.21.03-.4.4.22.76.66.66,1.21Z"/>
        <path class="uuid-4b2cfc97-0aa8-470f-bd61-3353ecc0371a" d="M144.52,207.12c.17.03.74.57.46.79l-.57-.06.11-.73Z"/>
        <path class="uuid-4b2cfc97-0aa8-470f-bd61-3353ecc0371a" d="M143.14,203.6c-.45-.02-.44-.56-.41-.97.45.02.44.56.41.97Z"/>
        <path class="uuid-4b2cfc97-0aa8-470f-bd61-3353ecc0371a" d="M145.39,209.9c-.33.12-.86-.99-.46-.97.13,0,.51.73.46.97Z"/>
        <path class="uuid-4b2cfc97-0aa8-470f-bd61-3353ecc0371a" d="M154.26,138.52l.46-.85c.2.16.2.37.1.61-.13.24-.34.27-.56.24Z"/>
        <path class="uuid-4b2cfc97-0aa8-470f-bd61-3353ecc0371a" d="M90.64,195.33c.26-2.76-.22-5.73-.41-8.51.05-4.09.8-12.64-2.62-14.2-2.18-.79-4.68-.79-6.73-2.03-2.25-1.69-5.09-2.09-7.62-2.44-1.07-.15-.91-1.72.09-1.87,2.52-.03,4.95.34,7.25,1.8,2.19,1.29,4.6,2.17,7.01,2.54.27.01.48-.04.59-.2.33-1.01-.77-2.28-1.1-3.24-1.29-3.35-3.37-6.49-4.19-10.02-.15-.57-.36-1.19-.81-1.44-.87-.54-2.62.56-3.8.79-.43.08-.72,0-.75-.2.37-1.21,2.12-1.17,2.96-1.77.15-.56,5.27-2.1,4.43-.78-.72,1.01-.51,2.15-.15,3.37.32,2.21,1.75,3.85,2.56,5.8.83,1.95,1.68,4.07,2.63,6.11.89,1.51,1.88-.46,2.41-1.33,1.2-1.76,2.46-3.82,3.19-6.06.41-.83,1.16-1.23,1.68-2.14,1.16-2.1-1.02-2.41-2.46-1.84-1.79.19-.5-1.75.7-1.69,1.97-.08,4.45.27,5.78,2.21.65,1.06-.83.81-1.31.62-.72-.24-1.21.11-1.64.9-.85,3.27-3.7,5.35-4.57,8.61-.1.44-.05.78.18.92.79.33,1.78-.31,2.58-.55,3.95-1.68,8.09-2.91,11.5-5.83,1.14-.98-.75-1.78-1.24-2.88-.61-2.54,3.89,2.54,4.84,2.12,2.65.69.55,1.66-.83,1.76-2.77.71-5.27,2.94-8.1,3.48-2.67,1.3-5.33,2.56-8.17,3.56-1.71.52-2.64,2.69-3.06,4.53-.13,2.77.6,5.54.43,8.32.27,1.33-.59,14.39,2.14,11.35,2.92-2.8,6.02-5.62,8.18-9.23.7-.79,1.76-.69,2.48-1.62,1.33-1.06,1.15-2.73,2.04-4.04,2.81-2.68,5.19-5.98,7.45-9.07.99-1.05-.59-2.67-.52-3.7.47-.75,1.05.66,1.65.99,1.37.7,2.41,1.69,3.69,2.58.77,1.14-2.7.24-3.08.98-.39.31-.66.83-.91,1.32-1.19,2.57-3.81,4.28-5.44,6.48-.19.21-.5.79-.29.99,1.24.23,2.72-.72,4.03-.92,2.69-1,5.55-1.07,8.28-1.69,1.39-.34.73-2.18.82-3.46.48-1.98.8,1.86,1.21,2.16.85,1.14.74,2.32.77,3.72.04.61.02,1.22-.24,1.32-.16.09-.39-.02-.58-.29-.42-.72-.9-1.54-1.7-1.64-2.74.22-11.92,1.5-12.82,3.15-.02.16.1.31.33.46,1.1.54,2.32,1.22,3.43,1.86.94.46,1.96.66,2.65,1.37.44.38.9,1.01,1.5.91.77.12,1.27-2.21,2.08-2.09.32.96-.55,2.02-.69,2.99-.16.67-.24,1.34-.54,1.81-.51.76-1.25,1.08-1.81,1.91-.54.62-.97,1.59-1.62,1.54-.57-.74.35-1.8.75-2.36,1.8-2.33-1.63-3.63-3.04-4.49-1.82-.82-3.77-2.44-5.77-1.95-3.41,2.17-5.89,6.39-9.06,9.04-.61.5-3.74,2.87-1.52,2.87,3.73-.14,7.73-1.47,11.55-1.27.9-.04,1.84-.57,2.65-.09.73.63-.11,1.39-.79,1.53-5.16,0-10.07.58-15.11,1.75-.97.23-1.33,1.16-1.06,2.23.39,1.93.4,3.85.63,5.86.94,3.88.55,8.07,1.46,11.93.51,4.08,6.65-.46,8.72-.71,5.44-1.99,11.39-2.65,16.55-5.55,2.41-2.2,2.04-6.68,3.74-9.46,1.13-1.81.82-5.62,3.02-6.1,1.76.06.96,3.03.46,4.25-1.63,2.89-2.58,6.57-3.3,9.91-.11.55-.11,1.13.11,1.64.3.73,1,1.18,1.62,1.49,4.05,1.82,8.5,3.22,11.53,6.79.83,1.15-.46,2.05-1.52,1.78-.7-.16-1.28-.52-1.91-1-2.41-2.14-4.72-4.05-7.54-4.83-2.36-1.29-4.87-2.15-7.47-1.56-7.64,2.4-15.57,4.4-22.76,8.19-1.77,9.24-1.47,20.13-1.49,29.66.32,4.33,1.01,8.69,1.15,13.01.24,2.07,2.7.7,3.81.41,3.29-1.38,6.95-1.58,10.32-2.27,5.02-1.53,10.28-1.05,15.36-1.93,3.35-.55,6.84-.71,9.98-2.3,1.97-2.66,3.29-6.26,4.65-9.42,1.29-1.91,2.7-5.22,4.44-6.28.52-.24,1.1.14.8.92-2.76,3.85-5.37,8.44-6.84,13.23-.11.41-.27.95.01,1.22,2.53.14,5.37-.61,7.89-1.27,2.35-.52,4.74-.77,6.88-2.15.84-.41,1.94-.91,2.69-1.03,1.5-.26.58,1.11-.26,1.33-4.73,1.91-9.68,3.36-14.61,3.92-.53.13-1.54.3-1.46,1.08.06.55.75,1.05,1.18,1.34,2.11,1.28,4.07,3.12,6.07,4.65,1.67,2.01,3.75,3.33,5.83,4.63,1.06.74,2.25,1.28,3.5,1.08,2.17-.64,4.37-1.26,6.49-2.08,1.31-.3,7.02-.93,6-3.12-1.72-1.23-2.76-2.87-3.67-5.03-.79-1.56-1.74-3.2-2.29-4.95-.36-1.6.65.19,1.11,1.33,1.56,3.96,3.71,7.78,7.3,9.11,3.33-.79,6.68-2.3,9.75-3.87,2.24-.92,4.54-1.78,6.78-2.67.86-.05,1.84.45,1.33,1.39-1.4,1.65-4.01,2.04-5.94,2.41-3.3,1.05-6.67,2.55-9.91,3.91-.66.45-.27.86.29,1.23,3.28,2.06,7.03,4.26,9.95,7.01,3.87,4.96,10,6.35,15.32,5.2,1.62.05,3.53.45,5.33.31,1.57-.19,2.78-.7,4.36-.61.68-.04.3-.52,0-.99-.38-.54-.84-1.15-1.2-1.72-4.98-7.91-10-16.14-12.89-25.35-3.51-7.35-5.37-15.52-7.83-23.34-5.41-16.54-10.48-33.5-14.5-50.42-.91-9.03-4.25-17.4-6.85-25.85-.8-3.16-.9-6.59-2.54-9.35-.74-1.21-1.83-2.05-2.46-3.33-2.33-4.35-4.79-8.89-5.71-14.07-.31-2.06-1.48-1.84-2.91-1.15-10.59,4.04-21.31,17.88-16.85,31.67,3.64,11.5,2.98,23.69,5.89,35.37.08.59.05,1.08-.12.58-1.93-4.23-2.14-9.43-2.57-14.19-.21-1.34-.51-2.63-.44-4.01-.03-2.67-1.28-5.03-1.23-7.72-.26-5.65-3.22-10.75-3.59-16.34.15-1.59.24-3.12.4-4.69.17-1.05.9-1.73,1.31-2.81,1.32-5.78,4.89-10.39,8.26-14.58.71-1.09,1.64-.87,2.72-1.62,2.08-1.27,4.3-2.69,6.55-3.51,1.6-.22,2.02-.29,1.77-2.48-.03-1.5-.33-3.09-.42-4.55.02-.33.06-.7.3-.75.14,0,.28.25.35.62.26,2.25.04,5.12.39,7.38.55,2.3,1.5,4.48,1.97,6.84.51,2.38,2.28,3.87,2.8,6.19,1.09,4.61,5.68,7.03,6.1,11.91,1.02,6.54,3.87,12.64,5.44,19.08,1.82,7.34,2.53,14.85,5.24,21.82,1.45,6.67,3.04,13.23,5.22,19.62,7.86,25.75,14.59,52.45,30.25,73.4,5.94,8.34,17.07,9.32,24.11,2.29,1.62-1.37,2.49-3.66,3.86-5.26.14-.06.23.03.24.26.02.36-.18,1.02-.44,1.56-5.97,11.04-21.56,12.95-28.02,2.18-1.3-2.22-3.58-1.66-5.47-1.48-1.32.06-2.1.05-3.49.08-13.78,1.06-14.3-1.69-24.11-9.48-2.02-1.71-4.34-3.27-6.72-4.08-2.38.28-4.98,1.33-7.36,1.9-6.8,2.06-4.59,3.74,4.01,6.22,6.09,1.4,12.12,3.51,18.15,5.19,1.38.15,1.06,1.69-.5,1.49-2.6-.28-5.88-2.2-8.56-2.72-6.06-1.89-12.45-2.71-18.21-5.68-1.05-.85-2.13-2.63-3.05-.72-.34,1.6,1.45,2.7,1.97,3.95,2.92,8.1,7.88,15.35,11.59,22.94.96,1.73,3.16,1.47,4.67,1.05,1.65-.66,3.4-.45,5.04-.8,1.44-.22,3.04.2,4.36-.38.58-.22,1.18-.29,1.76-.03,2.58.67,4.8,3.32,7.22,4.11.85-.04,1.41-2.16,2.07-2.68,1.12-.99.07,2.42.11,3.09-.23,1.36-.39,2.72-1.44,3.45-1.33,1.02-2.24,3.07-3.2,4.7-.76,1.23-1.59.76-.93-.81.69-1.9,3.24-2.75,1.46-4.86-2.06-2.05-4.74-4.13-7.28-5.12-2.64-.44-5.88-.41-8.24,1.17-.29.37-.21.94-.04,1.38.91,3.07,3.34,5.34,3.95,8.49.21,2.44.06,5.42,1.18,7.64.37.49,1.13.35,1.6.66.77.96-.79,1.7-1.54,1.64-1.25.07-3.09.36-4.45.25-.48-.1-.71-.55-.2-.88.77-.49,2.49.09,2.34-1.45-.29-2.91-.69-5.98-1.2-8.88-.76-2.01-1.94-3.97-2.95-5.76-3.53-4.28-3.84,12.92-4.52,15.43-.28,1.44.45,3.73-1.42,3.53-1.62-.27-3.65.08-5.18-.51-.61-.34-.62-1.02.01-1.22,1.19-.33,3.14.29,3.95-.56,2.61-4.56,1.89-10.89,3.2-16.2.51-3.28-2.96-5.04-3.44-7.97-.86-2.94-2.73-5.31-4.1-7.93-3.62-6.47-6.18-14.1-10.95-19.5-5.41-3.71-10.14-9-16.01-11.6-4.67-.43-9.78,1.91-14.49,1.47-5.58.73-11.19,1.52-16.77,2.48-2.34,1.18-5.09,1.5-7.36,2.84-3.24,5.36-5.05,11.9-7.29,17.94-2.77,5.42-5.53,10.87-7.93,16.48-.09.31.1.34.49.14.67-.37,1.45-.96,2.17-1.44,2.57-1.68,5.44-3.74,8.52-3.39,2.95.45,6.14,2.69,5.84,6.79-.42,5.55-3.15,11.16-7.76,13.08-5.27,2.65-19.6,5.37-14.64-6.5.66-1.35,1.68-2.8,1.21-4.53-.21-1.15,0-1.55.85-2.29,1.29-.95,1.74-2.53,2.4-4.05,3.75-7.63,8.15-14.67,10.58-23.15,1.02-2.4,1.44-4.82,1.92-7.36.64-1.36-.04-2.18-1-2.85-1.97-2.82-5.36-1.89-7.84-3.33-1.08-.79-2.02-1.76-3.26-2.19-1.44-.72-2.29-2.71-3.63-3.7-1.37-1.91,1.24-2.17,2.17-.94,1.96,2.34,4.44,4.24,7.1,5.23,2.11.39,4.48,1.39,6.3,2.78,1.27.89.79-.58.86-1.92-.21-5.41-.8-10.92-.91-16.34.35-6,.33-11.85.74-17.81.03-1.64-1.19-2.98-1.09-4.65-.59-3.66-5.03-1.84-6.94-2-6.96-1.6-5.28,2.75-9.08,6.92-.91.71-1.85-.12-1.4-1.52.27-1.45,1.75-2.89,1.57-4.4-.55-1.99-2.69-2.39-4.25-3.14-1.11-.3-2.37.25-3.44-.35-.93-.48-1.77-2.13-1.07-3.21.93-.95,2.41-1.7,3.62-1.21,1.79.6,3.48,1.5,5.1,2.31,2.02.27,3-2.92,3.51-4.83.35-1.19.9-2.5.73-3.77-.11-1.13-.67-2.29-.4-3.42.76-2.3,2.81-2.96,3.31-.04.44,3.63-1.02,7.01-1.92,10.31-.18.91-.93,2.41.15,2.85,3.42.39,6.63.53,9.94.32,2.36-.1.64-5.01.65-6.94-.81-4-.72-8.04-1.78-11.95-.68-2.46-2.93-1.83-4.59-1.15-5.42,2.26-10.82,4.84-16.38,6.65-1.18.6-1.74,2.09-2.85,2.29-.52.17-1.04.33-1.52.65-4.18,3.86-10.01,5.1-13.11,10.57-.73,2.59-5.72,3.53-3.21,6.4.36.52.57,1.03.39,1.15-.18.05-.31,0-.5-.15-.97-.74-2.29-3.47-3.15-4.51-.38-.43-.88-.85-1.07-1.34-.06-.26.31-.15.83.19.69.47,1.26.79,1.97.49,3.84-2.94,6.61-8.2,11.1-10.03,1.4-.89,2.7-2.52,3.74-3.91.6-1.07-.27-1.54-1.22-1.68-4.65-1.12-9.49-1.67-14.11-2.8-.7-.36-.7-1.41.12-1.5.73-.05,1.61.14,2.39.14,2.92.62,5.89.74,8.8,1.35,1.42.55,2.99.45,4.47.82,1.12.29,1.53-.6,1.2-1.75-.86-4.04-1.3-8.53-3.17-11.99-.37-1.31-.36-4.01-1.99-4.08-.91-.35-6.15,4.16-5.18,1.99,2.38-2.59,5.73-3.83,8.51-5.8.99-.38,1.51.38.24,1.18-1.88,1.14.02,2.39.18,4.05,1.38,2.82,1.55,5.99,2.45,9.11,1.05,6.89,1.74,7.09,7.27,5.61,3.19.31,5.85-1.39,8.66-2.73,1.14-.4,2.79-.78,3.86-1.71.34-.46,0-1.07.02-1.61.12-.9-.61-1.24-1.25-1.39-1.82-.59-3.5-.83-5.14-1.74-2.14-.65-4.18-1.19-6.34-1.94-.65-.15-1.79-.37-1.6-1.39,1.09-2.09,3.19.35,4.67.47,3.79.7,7.4,1.86,10.92,3.61,1.27.67,3.39,1.19,4.52.33l.07-.11ZM87.64,314.53c-2.63.79-5.94.16-8.56-.48-.59-.16-1.06-.87-1.64-.58-.72.59-1.02,2.47-.91,3.52.87,4.06,5.64,2.83,8.3,2.76,3.25-.22,6.85-2.03,9.04-4.48,1.19-1.97,2.44-4.24,2.8-6.65.75-2.59.2-5.41-1.78-7.03-4.32-2.86-9.48,1.36-13.07,4.23-1.37,1.06-1.83,3.02-2.85,4.37-2.13,2.52.38,1.54,1.7,2.42,2.47,1.34,2.66.12,4.15-1.93.62-.92,1.18-1.96,1.72-2.98.09-.22.23-.49-.01-.51-.57-.04-4.33,3.54-4.38,1.78,1.53-1.97,4.02-3.37,6.15-4.12.84-.18,1.52-1.2,2.26-1.38,2.22.27-3.17,5.06-3.38,6.18-.35.77-.95,1.53-1.3,2.24-.69,1.57,2.35,1.08,1.83,2.53l-.08.09Z"/>
        <path class="uuid-4b2cfc97-0aa8-470f-bd61-3353ecc0371a" d="M120.41,144.04c.86.32,2.42.23,3.01,1.45.39.89-.07,2.17-.69,2.83-.41.41-1.04.55-1.35,1.08-.35.64-.03,1.79-.41,2.44-.35.67-.99.96-1.61,1.24-1.78.81-3.46,1.18-5.28,1.6-1.04-.03-2.04-.56-3.11-.33-1.04-.08-3.22,1.03-4.2.1-.22-.35-.02-.94.43-1.12.92-.26,2.02.1,2.87-.45.54-.22.97-.38,1.32-.84.67-1.12,1.3-2.7,2.08-3.77,1.74-2.62.84-2.68-1.44-2.45-.75.11-1.48.31-2.23.66-.55.27-1.13.21-1.28-.41-.26-1.63,1.66-2.2,2.74-2.23.69-.02,1.31-.28,1.97-.14,2.16.6,4.83-.4,7.03.32l.16.05ZM120.95,146.36c-.72-.35-1.63-.32-2.41-.49-.46-.12-.89-.54-1.3-.2-.48.34-1.48,1.3-1.43,2.09.1.18.48.38.68.26.26-.09.51-.5.7-.59.17-.03.26.36.47.34.22.02.49,0,.76-.03.26-.05.54.09.57-.18.04-.21.03-.59.13-.63.16-.08.31.34.46.42.51.23,1.48-.12,1.43-.89l-.06-.1ZM118.14,150.88c-.45-.25-.82.12-1.28.13s-.84-.03-1.33-.01c-.53.02-1.22-.19-1.58.3-.73,1.01.12,1.02.87.91.35-.05.47-.31.63-.34.35-.08,1.14-.02,1.59-.17.18-.06,1.25-.56,1.09-.82Z"/>
        <path class="uuid-4b2cfc97-0aa8-470f-bd61-3353ecc0371a" d="M42.82,176.63c1.65.21,4.08.2,5.59,1.54,3.45,2.49,3.5,3.38,1.48,7.33-1.77,3.72-4.29,7.04-7.93,7.57-2.51.25-5.26,1.01-7.61-.23-.61-.39-1.78-.78-1.89-1.64.01-.5.77-.72,1.34-.39,1.15.74,2.32,1.95,3.7,1.65.31-.06.62-.15.93-.24,6.41-.05,7.81-2.38,10.82-8.74.32-.72.33-1.57.05-2.31-.33-.97-1.36-1.43-2.27-2-.91-.54-1.98-.64-2.62.57-1.16,2.58-1.56,5.54-2.52,8.2-.25,1.17-.56,2.78-1.54,3.41-1.55.11.13-3.82.34-4.7.77-2.12.95-4.84,1.65-7.02.73-1.98-.97-1.83-2.11-1.35-.74.17-1.43,1.32-2.19.99-.43-1.16.84-2.61,1.85-2.51,1,.1,1.9-.16,2.81-.15l.13.02Z"/>
        <path class="uuid-4b2cfc97-0aa8-470f-bd61-3353ecc0371a" d="M132.31,181.77c.71.22,1.6.02,2.27.35.52.21,1.07.28,1.69.29.21.02.45.07.63.2.09.16.17.11.11.6-.27,1.12-1.69.2-2.41.3-2.39-.26-6.87-1.26-6.03-5.16.39-2.56.95-4.66,2.51-6.7.46-.91,1.41-.6,2.14-.76.95-.41,2.05,0,2.72.89.43.61-.06,1.4-.24,2.09-.19.4-.55.56-.92.24-.48-.31-.45-1.46-1.03-1.52-1.95.28-3.16,2.77-3.44,4.86-.22.72-.29,1.46,0,2.17.11.35.22.71.41.95.4.39,1.13.69,1.48,1.14l.11.06Z"/>
        <path class="uuid-4b2cfc97-0aa8-470f-bd61-3353ecc0371a" d="M46.51,198.32c-.13,1.32-.41,2.79-.61,4.1-.05.94.21,2.3-.13,3.16-.13.38-1.58,5.16-1.52,2.7.71-2.49.89-5.28,1.32-7.85.12-.31.37-.37.36-.64.04-.59-.28-1.72.55-1.55l.04.07Z"/>
        <path class="uuid-4b2cfc97-0aa8-470f-bd61-3353ecc0371a" d="M72.44,165.35c.05.7-.11,1.85-.42,2.56-.19.38-.44.63-.54,1.04-.16.57-.41,1.58-.56,1.98-.04.15-.1.22-.27.17-.43-.15-.69-.53-.5-1.04.27-1.05.86-2.26,1.39-3.09.17-.47.24-1.59.83-1.68l.06.05Z"/>
      </g>
      <rect class="uuid-b2119ca7-2074-4796-b789-d3ddee80ad42" width="1190.55" height="378.06"/>
      <rect class="uuid-0aaae2a2-40ed-46e3-897b-0ce6184418e1" y="378.06" width="1190.55" height="126.83"/>
    </g>
  </g>
</svg>