<?xml version="1.0" encoding="UTF-8"?>
<svg id="uuid-7851f8b1-1515-4a51-a867-eaf470422e0a" data-name="图层 1" xmlns="http://www.w3.org/2000/svg" viewBox="0 0 1366 768">
  <defs>
    <style>
      .uuid-e5681625-a54e-426b-b2a6-a163bb221b4d {
        fill: #fcee21;
      }

      .uuid-e5681625-a54e-426b-b2a6-a163bb221b4d, .uuid-49e3a342-705a-4ecb-bb6d-18c08b79bf36 {
        opacity: .36;
      }

      .uuid-2957bf69-0f89-46d4-86d1-349040298f73 {
        fill: #2e3192;
      }

      .uuid-9a0099bf-33cb-4618-b0f7-7629351e4a64 {
        fill: #fce021;
      }

      .uuid-49e3a342-705a-4ecb-bb6d-18c08b79bf36 {
        fill: #fbb03b;
      }
    </style>
  </defs>
  <path class="uuid-9a0099bf-33cb-4618-b0f7-7629351e4a64" d="M343.24,429.81c.29.43.16.56-.21.6-1.67.07-6.89.01-13.83.03-15.03,0-55.49.02-63.44-.01-.68-.04-1-.27-1.08-1.22-.1-1.75.41-7.01,1.15-9.16.52-1.29,1.41-.97,3.15-1.02,12.63.29,53.33-.27,63.43.5.65.23,1.92,1.39,2.79,2.22,2.56,2.56,6.03,5.69,7.99,7.99l.04.06Z"/>
  <path class="uuid-2957bf69-0f89-46d4-86d1-349040298f73" d="M262.73,300.56c15.5,17.05,27.12-.76,36.5-17.07,9.24-16.84,19.71-33.36,30.2-49.55,25.04-32.11,53.25-74.58,94.25-86.25,9.46-1.3,10.71,4.72,2.31,7.86-64.65,24.12-59.88,111.55-101.2,159.91-29.29,34.29-7.1,40.39,17.54,62.35,42.33,37.65,143.34,111.86,114.38,175.77-7.1,2.95-9.06-12.06-10.43-17.1-9.19-41.55-46.83-68.74-76.51-95.51-11.23-10.42-23.13-20.03-34.99-29.74-10.4-8.78-19.39-18.44-29.17-28.38-8.06-8.51-18.01-16.55-27.22-4.93-42.24,53.85-31.41,115.48,6.44,168.3,15.48,23.49-7.96,25.41-18.59,5.92-31.7-50.5-51.82-120.91-18.47-175.24,11.2-16.18,25.28-31.09,8.15-49.32-38.31-40.7-62.43-87.35-57.76-144.74.47-15.6,2.17-35.41,12.87-47.06,5.44-5.16,5.47,2.3,4.83,7.02-7.23,40.57,2.95,85.91,21.57,119.88"/>
  <path class="uuid-9a0099bf-33cb-4618-b0f7-7629351e4a64" d="M374.03,471.1c.26.48.29.67-.06.73-20.73.05-56.83,0-80.01.02-13.62-.26-22.82.51-26.48-.29-.22-.49-.21-1.17-.21-1.79.05-2.27.34-6.92.62-8.84.09-.69.33-1.56.78-1.58,10.49-.04,86.65.14,96.54.32.59.08,1.72,1.55,2.32,2.37,1.93,2.69,4.86,6.45,6.47,9l.04.08Z"/>
  <path class="uuid-9a0099bf-33cb-4618-b0f7-7629351e4a64" d="M398.67,511.21c.39,1.36.03,1.85-.87,1.8-23.82.02-61.94,0-87.65,0-11.19-.02-19.76.03-22.77-.02-.94,0-1.55-.92-2.01-1.98-.69-1.78-4.53-11.57-2.26-11.38,10.88.06,95.9.93,110.05,1.17.64.04,1.25.59,1.7,1.33,1.2,1.92,3.11,6.6,3.78,8.96l.03.12Z"/>
  <path class="uuid-9a0099bf-33cb-4618-b0f7-7629351e4a64" d="M300.48,391.29c-.28.81-1.79.83-4.17.84-1.63,0-3.61,0-5.57,0-1.96,0-4,.01-5.83-.02-1.15-.08-2.3.05-2.99-.82-.58-.88.13-3.07.93-4.97,1.45-3.72,4.96-3.35,8.86-3.34,2.21.02,4.67.15,6.1,2.05,1.11,1.53,2.86,4.48,2.7,6.17l-.03.09Z"/>
  <path class="uuid-9a0099bf-33cb-4618-b0f7-7629351e4a64" d="M302.79,257.77c-.67,1.11-1.83,1.32-3.03,1.34-13.38.1-41.67.23-50.29.27-4.32.23-5.45-4.52-7.51-7.82-1.09-2.4-2.91-4.69.86-4.46,11.18.11,51.25-.22,61.64.12,1.87.56.68,3.14.21,5.46-.54,1.95-1.14,3.94-1.82,5.01l-.06.1Z"/>
  <path class="uuid-9a0099bf-33cb-4618-b0f7-7629351e4a64" d="M313.05,215.11c-.57.9-1.33,1.22-2.33,1.25-2.39.06-7.34.04-13.56.08-13.95-.13-41.15.55-52.06,0-.94-.3-1.59-1.4-2.36-3.42-.6-2.15-3.7-8.7-1.5-8.96,12.19-.12,62.14.14,74.34.33.78.1.94.77.82,1.48-.39,2.08-1.87,6.65-3.29,9.14l-.06.09Z"/>
  <path class="uuid-9a0099bf-33cb-4618-b0f7-7629351e4a64" d="M341.71,177.16c-.8.88-1.59,1.22-2.7,1.24-3.01.03-10.1,0-19.18.01-17.39,0-43.16,0-60.46,0-6.67-.02-11.73.04-14.05-.04-1.04-.01-1.66-.81-1.89-1.79-.57-2.15-.91-6.67-.71-8.82.1-1.5.91-1.91,2.3-1.82,14.2.06,88.48.02,102.62.17.91.04.77.88.42,1.55-1.12,2.15-4.11,6.89-6.26,9.41l-.08.08Z"/>
  <path class="uuid-2957bf69-0f89-46d4-86d1-349040298f73" d="M502.36,345.3h37.82v16.84c0,6.84-1.61,12.82-4.84,17.93-3.23,5.11-7.75,9.08-13.58,11.89s-12.67,4.23-20.52,4.23-14.81-1.32-20.71-3.97c-5.9-2.65-10.49-6.38-13.77-11.2-3.28-4.82-4.91-10.44-4.91-16.87v-26.85c0-6.84,1.62-12.81,4.88-17.9,3.25-5.09,7.78-9.05,13.58-11.86,5.8-2.82,12.63-4.23,20.49-4.23,6.5,0,12.42,1.13,17.75,3.38s9.8,5.4,13.43,9.45c3.63,4.05,6.07,8.78,7.32,14.21h-19.36c-1.25-3.84-3.71-6.79-7.39-8.86-3.68-2.07-7.59-3.1-11.74-3.1-6.2,0-11.17,1.73-14.89,5.2-3.73,3.46-5.59,8.03-5.59,13.71v26.85c0,5.13,1.91,9.24,5.74,12.33,3.83,3.09,8.89,4.63,15.2,4.63s11.17-1.65,14.89-4.95c3.73-3.3,5.59-7.89,5.59-13.77v-2.75h-19.36v-14.33Z"/>
  <polygon class="uuid-2957bf69-0f89-46d4-86d1-349040298f73" points="548.43 395.25 589.4 304.24 602.46 304.24 643.43 395.25 624.15 395.25 595.93 327.46 567.72 395.25 548.43 395.25"/>
  <path class="uuid-2957bf69-0f89-46d4-86d1-349040298f73" d="M640.43,318.57v-14.33h78.49v14.33h-78.49ZM670.74,395.25v-83.56h17.86v83.56h-17.86Z"/>
  <path class="uuid-2957bf69-0f89-46d4-86d1-349040298f73" d="M725.67,318.57v-14.33h78.49v14.33h-78.49ZM755.99,395.25v-83.56h17.86v83.56h-17.86Z"/>
  <polygon class="uuid-2957bf69-0f89-46d4-86d1-349040298f73" points="800.41 395.25 841.38 304.24 854.44 304.24 895.41 395.25 876.12 395.25 847.91 327.46 819.69 395.25 800.41 395.25"/>
  <path class="uuid-2957bf69-0f89-46d4-86d1-349040298f73" d="M940.88,396.19c-7.95,0-14.83-1.37-20.64-4.1-5.8-2.73-10.27-6.64-13.39-11.74-3.13-5.09-4.69-11.12-4.69-18.09v-24.98c0-7.01,1.56-13.05,4.69-18.12,3.13-5.07,7.59-8.98,13.39-11.74,5.8-2.75,12.68-4.13,20.64-4.13,6.6,0,12.56,1.18,17.86,3.54,5.3,2.36,9.72,5.72,13.24,10.08,3.53,4.36,5.94,9.57,7.24,15.62h-18.46c-.9-3-2.33-5.58-4.28-7.73-1.95-2.15-4.27-3.81-6.94-4.98-2.68-1.17-5.56-1.75-8.67-1.75-6.25,0-11.19,1.72-14.82,5.16-3.63,3.44-5.44,8.13-5.44,14.05v24.98c0,5.93,1.81,10.6,5.44,14.02,3.63,3.42,8.57,5.13,14.82,5.13,4.65,0,8.8-1.25,12.46-3.76,3.65-2.5,6.13-6.07,7.43-10.7h18.46c-1.35,6.05-3.79,11.26-7.32,15.62-3.53,4.36-7.93,7.72-13.21,10.08-5.28,2.36-11.22,3.54-17.82,3.54Z"/>
  <polygon class="uuid-2957bf69-0f89-46d4-86d1-349040298f73" points="984.48 395.25 1025.45 304.24 1038.5 304.24 1079.47 395.25 1060.19 395.25 1031.98 327.46 1003.76 395.25 984.48 395.25"/>
  <polygon class="uuid-e5681625-a54e-426b-b2a6-a163bb221b4d" points="595.88 354.06 578.6 395.25 613.26 395.25 595.88 354.06"/>
  <polygon class="uuid-49e3a342-705a-4ecb-bb6d-18c08b79bf36" points="595.88 364.94 586.31 395.25 605.45 395.25 595.88 364.94"/>
  <polygon class="uuid-e5681625-a54e-426b-b2a6-a163bb221b4d" points="847.86 354.06 830.57 395.25 865.24 395.25 847.86 354.06"/>
  <polygon class="uuid-49e3a342-705a-4ecb-bb6d-18c08b79bf36" points="847.86 364.94 838.28 395.25 857.43 395.25 847.86 364.94"/>
  <polygon class="uuid-e5681625-a54e-426b-b2a6-a163bb221b4d" points="1031.92 354.06 1014.64 395.25 1049.31 395.25 1031.92 354.06"/>
  <polygon class="uuid-49e3a342-705a-4ecb-bb6d-18c08b79bf36" points="1031.92 364.94 1022.35 395.25 1041.49 395.25 1031.92 364.94"/>
</svg>